<svg xmlns="http://www.w3.org/2000/svg" viewBox="0 0 345.92 174.87"><defs><style>.cls-1{opacity:0.5;}.cls-2{fill:#36c2de;}.cls-3{fill:#333;}.cls-4{fill:none;stroke:#333;stroke-linecap:round;stroke-width:5px;}.cls-5{fill:#ec1e79;}</style></defs><title>Asset 4</title><g id="Layer_2" data-name="Layer 2"><g id="Layer_7" data-name="Layer 7"><g class="cls-1"><path class="cls-2" d="M12.37,124.73a10.38,10.38,0,1,1,3.78-.72A10.31,10.31,0,0,1,12.37,124.73Z"/><path class="cls-3" d="M12.37,106a8.38,8.38,0,1,1-3.05.58,8.37,8.37,0,0,1,3.05-.58m0-4h0a12.37,12.37,0,1,0,11.52,7.86A12.32,12.32,0,0,0,12.37,102Z"/><path class="cls-2" d="M78.84,122.29a10.38,10.38,0,1,1,3.78-.72A10.31,10.31,0,0,1,78.84,122.29Z"/><path class="cls-3" d="M78.84,103.54a8.38,8.38,0,1,1-3.05.58,8.37,8.37,0,0,1,3.05-.58m0-4h0a12.37,12.37,0,1,0,11.52,7.86,12.32,12.32,0,0,0-11.52-7.86Z"/><path class="cls-2" d="M152.23,22.75A10.38,10.38,0,1,1,156,22,10.31,10.31,0,0,1,152.23,22.75Z"/><path class="cls-3" d="M152.22,4a8.38,8.38,0,1,1-3.05.58A8.37,8.37,0,0,1,152.22,4m0-4h0a12.38,12.38,0,0,0-11.52,16.89,12.37,12.37,0,0,0,23-9A12.3,12.3,0,0,0,152.23,0Z"/><path class="cls-2" d="M148.39,70.32a10.38,10.38,0,1,1,3.78-.72A10.31,10.31,0,0,1,148.39,70.32Z"/><path class="cls-3" d="M148.39,51.58a8.38,8.38,0,1,1-3.05.58,8.37,8.37,0,0,1,3.05-.58m0-4h0a12.37,12.37,0,1,0,11.52,7.86,12.32,12.32,0,0,0-11.52-7.86Z"/><path class="cls-2" d="M315,25.27a10.38,10.38,0,1,1,3.78-.72A10.31,10.31,0,0,1,315,25.27Z"/><path class="cls-3" d="M315,6.52A8.38,8.38,0,1,1,312,7.1,8.37,8.37,0,0,1,315,6.52m0-4h0a12.37,12.37,0,1,0,11.52,7.86A12.32,12.32,0,0,0,315,2.52Z"/><path class="cls-2" d="M243.69,112.78a10.38,10.38,0,1,1,3.78-.72A10.31,10.31,0,0,1,243.69,112.78Z"/><path class="cls-3" d="M243.68,94a8.38,8.38,0,1,1-3.05.58,8.37,8.37,0,0,1,3.05-.58m0-4h0A12.37,12.37,0,1,0,255.2,97.9,12.32,12.32,0,0,0,243.68,90Z"/><polyline class="cls-4" points="11.69 114.06 78.55 112.6 149.07 60.25 152.52 11.7 243.39 103.09 315.34 14.22"/></g><path class="cls-2" d="M15.45,99.63A10.37,10.37,0,1,1,25.83,89.26,10.38,10.38,0,0,1,15.45,99.63Z"/><path class="cls-3" d="M15.45,80.88a8.37,8.37,0,1,1-8.37,8.37,8.37,8.37,0,0,1,8.37-8.37m0-4A12.37,12.37,0,1,0,27.83,89.26,12.38,12.38,0,0,0,15.45,76.88Z"/><path class="cls-2" d="M78.24,121.6a10.37,10.37,0,1,1,10.37-10.37A10.38,10.38,0,0,1,78.24,121.6Z"/><path class="cls-3" d="M78.24,102.86a8.37,8.37,0,1,1-8.37,8.37,8.37,8.37,0,0,1,8.37-8.37m0-4a12.37,12.37,0,1,0,12.37,12.37A12.38,12.38,0,0,0,78.24,98.86Z"/><path class="cls-2" d="M182.87,55.68a10.37,10.37,0,1,1,10.37-10.37A10.38,10.38,0,0,1,182.87,55.68Z"/><path class="cls-3" d="M182.87,36.94a8.37,8.37,0,1,1-8.37,8.37,8.37,8.37,0,0,1,8.37-8.37m0-4a12.37,12.37,0,1,0,12.37,12.37,12.38,12.38,0,0,0-12.37-12.37Z"/><path class="cls-2" d="M161.95,98.58a10.37,10.37,0,1,1,10.37-10.37A10.38,10.38,0,0,1,161.95,98.58Z"/><path class="cls-3" d="M161.95,79.84a8.37,8.37,0,1,1-8.37,8.37,8.37,8.37,0,0,1,8.37-8.37m0-4a12.37,12.37,0,1,0,12.37,12.37,12.38,12.38,0,0,0-12.37-12.37Z"/><path class="cls-2" d="M333.55,117.41A10.37,10.37,0,1,1,343.92,107,10.38,10.38,0,0,1,333.55,117.41Z"/><path class="cls-3" d="M333.55,98.67a8.37,8.37,0,1,1-8.37,8.37,8.37,8.37,0,0,1,8.37-8.37m0-4A12.37,12.37,0,1,0,345.92,107a12.38,12.38,0,0,0-12.37-12.37Z"/><path class="cls-5" d="M235.19,172.87a10.37,10.37,0,1,1,10.37-10.37A10.38,10.38,0,0,1,235.19,172.87Z"/><path class="cls-3" d="M235.19,154.13a8.37,8.37,0,1,1-8.37,8.37,8.37,8.37,0,0,1,8.37-8.37m0-4a12.37,12.37,0,1,0,12.37,12.37,12.38,12.38,0,0,0-12.37-12.37Z"/><polyline class="cls-4" points="14.93 88.73 77.71 111.75 162.47 88.73 183.4 44.78 234.67 163.02 334.07 106.52"/></g></g></svg>
