<svg xmlns="http://www.w3.org/2000/svg" xmlns:xlink="http://www.w3.org/1999/xlink" viewBox="0 0 641.03 525.52"><defs><style>.cls-1,.cls-23,.cls-24,.cls-3,.cls-6,.cls-9{fill:none;}.cls-2{clip-path:url(#clip-path);}.cls-3,.cls-6{stroke:#b3b3b3;}.cls-23,.cls-24,.cls-3,.cls-6,.cls-9{stroke-miterlimit:10;}.cls-23,.cls-24,.cls-3,.cls-9{stroke-width:0.25px;}.cls-4{clip-path:url(#clip-path-3);}.cls-5{fill:url(#linear-gradient);}.cls-6{stroke-width:0.5px;}.cls-7{clip-path:url(#clip-path-5);}.cls-8{fill:url(#linear-gradient-2);}.cls-9{stroke:#ededed;}.cls-10{clip-path:url(#clip-path-7);}.cls-11{fill:url(#linear-gradient-3);}.cls-12{clip-path:url(#clip-path-9);}.cls-13{fill:url(#linear-gradient-4);}.cls-14{clip-path:url(#clip-path-11);}.cls-15{fill:url(#linear-gradient-5);}.cls-16{clip-path:url(#clip-path-13);}.cls-17{fill:url(#linear-gradient-6);}.cls-18{clip-path:url(#clip-path-15);}.cls-19{fill:url(#linear-gradient-7);}.cls-20{clip-path:url(#clip-path-17);}.cls-21{fill:url(#linear-gradient-8);}.cls-22{fill:#b3b3b3;}.cls-23{stroke:#efefef;}.cls-24{stroke:#e2e2e2;}.cls-25{isolation:isolate;}.cls-26{clip-path:url(#clip-path-19);}.cls-27{clip-path:url(#clip-path-20);}.cls-28{fill:#909090;}</style><clipPath id="clip-path" transform="translate(1.04 30.87)"><rect class="cls-1" width="640" height="398"/></clipPath><clipPath id="clip-path-3" transform="translate(1.04 30.87)"><path class="cls-1" d="M166.95,154.65l-22,46.1-22.75-16.29L108.6,203.31l51.32,27.8,20,4.69,26.72-.28,35.44,18,27.72,19.34L302,280.3a3.31,3.31,0,0,1,1.24.57l20.52,15.26,33.13,1.1L382,311.44l19.48,22-21.46-36.07-27-38-34.28-1.3-26.07-19.95L264.5,226.83l-26.56-42.51-25.8-22.5-17.71-28.71Z"/></clipPath><linearGradient id="linear-gradient" x1="-397.53" y1="-958.87" x2="-396.47" y2="-958.87" gradientTransform="matrix(-51.19, 88.66, 88.66, 51.19, 64954.76, 84538.8)" gradientUnits="userSpaceOnUse"><stop offset="0" stop-color="#9b9b9b"/><stop offset="1" stop-color="#686868"/></linearGradient><clipPath id="clip-path-5" transform="translate(1.04 30.87)"><path class="cls-1" d="M79.6,214.13l45.27,30.36,18.42,5,28.55.55,37.86,18.36,26.54,21.71,27.87,6.73,23.44,16.28,34.65,1.1s23.81,15.87,24.27,16,14.68,18.9,14.68,18.9l40.37-15.68-19.48-22-25.19-14.22-33.13-1.1-21.07-15.66-30.48-7L240.85,252.9l-34.21-17.37-26.72.28-20-4.69-51.32-27.8Z"/></clipPath><linearGradient id="linear-gradient-2" x1="-411.33" y1="-966.73" x2="-410.25" y2="-966.73" gradientTransform="matrix(-209.1, -209.1, -209.1, 209.1, -287796.02, 116551.19)" gradientUnits="userSpaceOnUse"><stop offset="0" stop-color="#f7f7f7"/><stop offset="0.32" stop-color="#f7f7f7"/><stop offset="0.97" stop-color="#ddd"/><stop offset="1" stop-color="#b3b3b3"/></linearGradient><clipPath id="clip-path-7" transform="translate(1.04 30.87)"><polygon class="cls-1" points="80.45 227.91 360.8 348.85 346.12 329.95 321.85 313.94 287.2 312.84 264.82 295.96 235.97 289 209.34 268.12 171.48 249.76 142.94 249.21 124.52 244.22 79.24 213.87 80.45 227.91"/></clipPath><linearGradient id="linear-gradient-3" x1="-379.43" y1="-939.18" x2="-378.37" y2="-939.18" gradientTransform="matrix(-17.64, 30.55, 30.55, 17.64, 22232.83, 28456.01)" gradientUnits="userSpaceOnUse"><stop offset="0" stop-color="#68c9e0"/><stop offset="1" stop-color="#2b8ea5"/></linearGradient><clipPath id="clip-path-9" transform="translate(1.04 30.87)"><polygon class="cls-1" points="122.22 184.46 144.97 200.75 157.71 174.03 155 172.18 122.22 184.46"/></clipPath><linearGradient id="linear-gradient-4" x1="-394.26" y1="-1010.93" x2="-393.17" y2="-1010.93" gradientTransform="matrix(32.7, 0, 0, -32.7, 13014.12, -32836.61)" gradientUnits="userSpaceOnUse"><stop offset="0" stop-color="#b3b3b3"/><stop offset="0.11" stop-color="#b3b3b3"/><stop offset="0.43" stop-color="#c1c1c1"/><stop offset="1" stop-color="#c1c1c1"/></linearGradient><clipPath id="clip-path-11" transform="translate(1.04 30.87)"><polygon class="cls-1" points="194.43 133.12 212.14 161.82 237.94 184.32 264.5 226.83 292.74 238.15 318.81 258.1 353.09 259.39 380.06 297.37 401.52 333.44 437.45 320.62 411.72 275.73 387.61 243.5 353.42 240.45 326.83 221.47 298.31 210.03 272.32 169.47 246.78 148.05 231.34 120.92 194.43 133.12"/></clipPath><linearGradient id="linear-gradient-5" x1="-411.39" y1="-966.74" x2="-410.3" y2="-966.74" gradientTransform="matrix(-207.49, -207.49, -207.49, 207.49, -285517.91, 115600.57)" xlink:href="#linear-gradient-2"/><clipPath id="clip-path-13" transform="translate(1.04 30.87)"><path class="cls-1" d="M186.6,113.64s0,0,0,0,0,0,0,0h0m0,0c-.18.79-20.3,35.86-20.3,35.86L143.6,134.45,131.48,181,155,172.18l2.71,1.85,9.24-19.38,27.48-21.53,36.91-12.2,15.45,27.14,25.53,21.42,26,40.56,28.52,11.44,26.58,19,34.19,3.05,24.11,32.23,25.73,44.88-19.58-71.34-19.27-21.73L348,221l-59.36-48.79-30-32.53-25.3-17.33L216,96.66s-28.48,16.65-29.36,17"/></clipPath><linearGradient id="linear-gradient-6" x1="-398.45" y1="-959.8" x2="-397.4" y2="-959.8" gradientTransform="matrix(-56.68, 98.16, 98.16, 56.68, 71956.65, 93688.93)" gradientUnits="userSpaceOnUse"><stop offset="0" stop-color="#ccc"/><stop offset="1" stop-color="#919191"/></linearGradient><clipPath id="clip-path-15" transform="translate(1.04 30.87)"><polygon class="cls-1" points="143.6 134.44 166.31 149.5 179.74 126 176 123.49 143.6 134.44"/></clipPath><linearGradient id="linear-gradient-7" x1="-394.44" y1="-1010.21" x2="-393.35" y2="-1010.21" gradientTransform="matrix(33.29, 0, 0, -33.29, 13277.27, -33467.15)" xlink:href="#linear-gradient-4"/><clipPath id="clip-path-17" transform="translate(1.04 30.87)"><polygon class="cls-1" points="216.45 96.21 231.81 120.47 232.83 122.09 259.15 139.2 289.13 171.73 348.49 220.52 399.06 227.09 417.87 249.27 437.45 320.62 472.71 306.79 452.71 234.55 435.29 213.87 395.13 203.31 325.67 156.15 293.07 124.41 266.11 110.45 250.67 84.98 216.45 96.21"/></clipPath><linearGradient id="linear-gradient-8" x1="-411.05" y1="-966.88" x2="-409.96" y2="-966.88" gradientTransform="matrix(-225.35, -225.35, -225.35, 225.35, -310055.42, 125615)" xlink:href="#linear-gradient-2"/><clipPath id="clip-path-19" transform="translate(1.04 30.87)"><rect class="cls-1" x="8.69" y="257.13" width="274.05" height="119.53"/></clipPath><clipPath id="clip-path-20" transform="translate(1.04 30.87)"><polygon class="cls-1" points="8.69 259.51 12.82 257.13 282.73 372.82 279.09 376.66 8.69 259.51"/></clipPath></defs><title>Asset 2</title><g id="Layer_2" data-name="Layer 2"><g id="Layer_6" data-name="Layer 6"><g id="About"><g class="cls-2"><line class="cls-3" x1="294.35" y1="161.11" x2="294.35" y2="34.89"/><line class="cls-3" x1="285.13" y1="164.14" x2="285.13" y2="37.29"/><line class="cls-3" x1="275.9" y1="167.19" x2="275.9" y2="39.7"/><line class="cls-3" x1="266.67" y1="170.26" x2="266.67" y2="42.13"/><line class="cls-3" x1="257.45" y1="173.33" x2="257.45" y2="44.56"/><line class="cls-3" x1="248.22" y1="176.43" x2="248.22" y2="47.01"/><line class="cls-3" x1="239" y1="179.54" x2="239" y2="49.47"/><line class="cls-3" x1="229.77" y1="182.66" x2="229.77" y2="51.94"/><line class="cls-3" x1="220.55" y1="185.8" x2="220.55" y2="54.42"/><line class="cls-3" x1="211.32" y1="188.96" x2="211.32" y2="56.92"/><line class="cls-3" x1="202.1" y1="192.13" x2="202.1" y2="59.43"/><line class="cls-3" x1="192.87" y1="195.32" x2="192.87" y2="61.95"/><line class="cls-3" x1="183.65" y1="198.52" x2="183.65" y2="64.48"/><line class="cls-3" x1="174.42" y1="201.75" x2="174.42" y2="67.03"/><line class="cls-3" x1="165.19" y1="204.98" x2="165.19" y2="69.59"/><line class="cls-3" x1="155.97" y1="208.24" x2="155.97" y2="72.16"/><line class="cls-3" x1="146.74" y1="211.5" x2="146.74" y2="74.75"/><line class="cls-3" x1="137.52" y1="214.79" x2="137.52" y2="77.35"/><line class="cls-3" x1="128.29" y1="218.09" x2="128.29" y2="79.96"/><line class="cls-3" x1="119.07" y1="221.41" x2="119.07" y2="82.58"/><line class="cls-3" x1="109.84" y1="224.75" x2="109.84" y2="85.22"/><line class="cls-3" x1="100.62" y1="228.1" x2="100.62" y2="87.87"/><line class="cls-3" x1="91.39" y1="231.47" x2="91.39" y2="90.54"/><line class="cls-3" x1="82.17" y1="234.85" x2="82.17" y2="93.21"/><line class="cls-3" x1="72.94" y1="238.26" x2="72.94" y2="95.9"/><line class="cls-3" x1="63.71" y1="241.68" x2="63.71" y2="98.61"/><line class="cls-3" x1="54.49" y1="245.11" x2="54.49" y2="101.33"/><line class="cls-3" x1="45.26" y1="248.57" x2="45.26" y2="104.06"/><line class="cls-3" x1="36.04" y1="252.04" x2="36.04" y2="106.81"/><line class="cls-3" x1="26.81" y1="255.53" x2="26.81" y2="109.56"/><line class="cls-3" x1="17.59" y1="259.04" x2="17.59" y2="112.34"/><g class="cls-2"><line class="cls-3" x1="344.27" y1="421.5" x2="640.99" y2="312.82"/></g><line class="cls-3" x1="333.41" y1="416.6" x2="630.14" y2="307.92"/><line class="cls-3" x1="322.56" y1="411.69" x2="619.28" y2="303.01"/><line class="cls-3" x1="311.7" y1="406.78" x2="608.43" y2="298.1"/><line class="cls-3" x1="300.85" y1="401.88" x2="597.57" y2="293.2"/><line class="cls-3" x1="290" y1="396.97" x2="586.72" y2="288.29"/><line class="cls-3" x1="279.14" y1="392.07" x2="575.87" y2="283.38"/><line class="cls-3" x1="268.29" y1="387.16" x2="565.01" y2="278.48"/><line class="cls-3" x1="257.44" y1="382.25" x2="554.16" y2="273.57"/><line class="cls-3" x1="246.58" y1="377.35" x2="543.31" y2="268.66"/><line class="cls-3" x1="235.73" y1="372.44" x2="532.45" y2="263.76"/><line class="cls-3" x1="224.88" y1="367.53" x2="521.6" y2="258.85"/><line class="cls-3" x1="214.02" y1="362.63" x2="510.75" y2="253.94"/><line class="cls-3" x1="203.17" y1="357.72" x2="499.89" y2="249.04"/><line class="cls-3" x1="192.32" y1="352.81" x2="489.04" y2="244.13"/><line class="cls-3" x1="181.46" y1="347.91" x2="478.19" y2="239.23"/><line class="cls-3" x1="170.61" y1="343" x2="467.33" y2="234.32"/><line class="cls-3" x1="159.76" y1="338.09" x2="456.48" y2="229.41"/><line class="cls-3" x1="148.9" y1="333.19" x2="445.63" y2="224.51"/><line class="cls-3" x1="138.05" y1="328.28" x2="434.77" y2="219.6"/><line class="cls-3" x1="127.2" y1="323.37" x2="423.92" y2="214.69"/><line class="cls-3" x1="116.34" y1="318.47" x2="413.07" y2="209.79"/><line class="cls-3" x1="105.49" y1="313.56" x2="402.21" y2="204.88"/><line class="cls-3" x1="94.64" y1="308.65" x2="391.36" y2="199.97"/><line class="cls-3" x1="83.78" y1="303.75" x2="380.51" y2="195.07"/><line class="cls-3" x1="72.93" y1="298.84" x2="369.65" y2="190.16"/><line class="cls-3" x1="62.08" y1="293.93" x2="358.8" y2="185.25"/><line class="cls-3" x1="51.22" y1="289.03" x2="347.95" y2="180.35"/><line class="cls-3" x1="40.37" y1="284.12" x2="337.09" y2="175.44"/><line class="cls-3" x1="29.52" y1="279.21" x2="326.24" y2="170.53"/><line class="cls-3" x1="18.66" y1="274.31" x2="315.39" y2="165.63"/><line class="cls-3" x1="11.82" y1="118.98" x2="298.04" y2="30.98"/><line class="cls-3" x1="11.41" y1="129.49" x2="298.55" y2="40.14"/><line class="cls-3" x1="11.06" y1="140.01" x2="299.12" y2="49.3"/><line class="cls-3" x1="10.77" y1="150.53" x2="299.74" y2="58.45"/><line class="cls-3" x1="10.54" y1="161.04" x2="300.42" y2="67.6"/><line class="cls-3" x1="10.36" y1="171.56" x2="301.16" y2="76.75"/><line class="cls-3" x1="10.25" y1="182.08" x2="301.95" y2="85.89"/><line class="cls-3" x1="10.2" y1="192.6" x2="302.8" y2="95.03"/><line class="cls-3" x1="10.21" y1="203.12" x2="303.71" y2="104.17"/><line class="cls-3" x1="10.28" y1="213.64" x2="304.68" y2="113.3"/><line class="cls-3" x1="10.42" y1="224.16" x2="305.7" y2="122.43"/><line class="cls-3" x1="10.61" y1="234.68" x2="306.78" y2="131.55"/><line class="cls-3" x1="10.87" y1="245.19" x2="307.93" y2="140.66"/><line class="cls-3" x1="11.19" y1="255.71" x2="309.13" y2="149.78"/><line class="cls-3" x1="306.65" y1="165.93" x2="638.51" y2="319.14"/><line class="cls-3" x1="295.8" y1="169.85" x2="627.66" y2="323.06"/><line class="cls-3" x1="284.94" y1="173.78" x2="616.81" y2="326.99"/><line class="cls-3" x1="274.09" y1="177.7" x2="605.95" y2="330.91"/><line class="cls-3" x1="263.24" y1="181.63" x2="595.1" y2="334.84"/><line class="cls-3" x1="252.38" y1="185.55" x2="584.25" y2="338.76"/><line class="cls-3" x1="241.53" y1="189.48" x2="573.39" y2="342.69"/><line class="cls-3" x1="230.68" y1="193.4" x2="562.54" y2="346.61"/><line class="cls-3" x1="219.82" y1="197.33" x2="551.69" y2="350.54"/><line class="cls-3" x1="208.97" y1="201.25" x2="540.83" y2="354.47"/><line class="cls-3" x1="198.12" y1="205.18" x2="529.98" y2="358.39"/><line class="cls-3" x1="187.26" y1="209.1" x2="519.12" y2="362.32"/><line class="cls-3" x1="176.41" y1="213.03" x2="508.27" y2="366.24"/><line class="cls-3" x1="165.56" y1="216.95" x2="497.42" y2="370.17"/><line class="cls-3" x1="154.7" y1="220.88" x2="486.56" y2="374.09"/><line class="cls-3" x1="143.85" y1="224.8" x2="475.71" y2="378.02"/><line class="cls-3" x1="132.99" y1="228.73" x2="464.86" y2="381.94"/><line class="cls-3" x1="122.14" y1="232.65" x2="454" y2="385.87"/><line class="cls-3" x1="111.29" y1="236.58" x2="443.15" y2="389.79"/><line class="cls-3" x1="100.43" y1="240.5" x2="432.3" y2="393.72"/><line class="cls-3" x1="89.58" y1="244.43" x2="421.44" y2="397.64"/><line class="cls-3" x1="78.73" y1="248.36" x2="410.59" y2="401.57"/><line class="cls-3" x1="67.87" y1="252.28" x2="399.74" y2="405.49"/><line class="cls-3" x1="57.02" y1="256.21" x2="388.88" y2="409.42"/><line class="cls-3" x1="46.17" y1="260.13" x2="378.03" y2="413.34"/><line class="cls-3" x1="35.31" y1="264.06" x2="367.18" y2="417.27"/><line class="cls-3" x1="24.46" y1="267.98" x2="356.32" y2="421.19"/><line class="cls-3" x1="2.38" y1="269.4" x2="317.83" y2="153.86"/><g class="cls-4"><polygon class="cls-5" points="498.5 214.06 329.33 478.99 13.7 314.23 182.87 49.3 498.5 214.06"/></g><g class="cls-2"><path class="cls-6" d="M108.6,203.31l13.62-18.85L145,200.75l22-46.1,27.48-21.53,17.71,28.71,25.8,22.5,26.56,42.51,28.24,11.32,26.07,19.94,34.28,1.3,27,38,21.46,36.07-19.48-22-25.19-14.22-33.13-1.1-20.52-15.26a3.31,3.31,0,0,0-1.24-.57l-32.18-7.44-27.72-19.34-35.44-18-26.72.28-20-4.69Z" transform="translate(1.04 30.87)"/></g><g class="cls-7"><polygon class="cls-8" points="241.59 525.52 0 307.08 241.59 88.64 483.19 307.08 241.59 525.52"/></g><g class="cls-2"><path class="cls-9" d="M79.6,214.13l45.27,30.36,18.42,5,28.55.55,37.86,18.36,26.54,21.71,27.87,6.73,23.45,16.28,34.65,1.1s23.82,15.87,24.27,16,14.68,18.9,14.68,18.9l40.37-15.68-19.48-22-25.19-14.22-33.13-1.1-21.06-15.66-30.49-7L240.85,252.9l-34.21-17.37-26.72.28-20-4.69-51.32-27.8Z" transform="translate(1.04 30.87)"/></g><g class="cls-10"><polygon class="cls-11" points="426.48 278.48 291.45 489.95 15.63 345.98 150.67 134.5 426.48 278.48"/></g><g class="cls-2"><polygon class="cls-6" points="81.49 258.78 80.28 244.74 125.55 275.09 143.97 280.08 172.52 280.63 210.38 298.99 237.01 319.87 265.86 326.83 288.23 343.71 322.88 344.81 347.16 360.82 361.84 379.72 81.49 258.78"/></g><g class="cls-12"><rect class="cls-13" x="123.26" y="203.05" width="35.49" height="28.57"/></g><g class="cls-2"><polygon class="cls-6" points="156.04 203.05 123.26 215.33 146 231.62 158.74 204.9 156.04 203.05"/></g><g class="cls-14"><polygon class="cls-15" points="316.97 474.17 77.94 258.05 316.97 41.92 556.01 258.05 316.97 474.17"/></g><g class="cls-2"><polygon class="cls-6" points="232.37 151.78 247.82 178.92 273.35 200.34 299.35 240.9 327.87 252.34 354.45 271.32 388.64 274.37 412.75 306.6 438.48 351.48 402.56 364.31 381.1 328.23 354.12 290.26 319.85 288.96 293.77 269.02 265.53 257.7 238.97 215.19 213.17 192.69 195.46 163.98 232.37 151.78"/></g><g class="cls-16"><polygon class="cls-17" points="545.74 183.51 361.99 471.27 25.26 295.49 209.01 7.74 545.74 183.51"/></g><g class="cls-2"><path class="cls-6" d="M143.6,134.44,131.48,181,155,172.18l2.71,1.85,9.24-19.38,27.48-21.53,36.91-12.2,15.45,27.13,25.53,21.42,26,40.56,28.52,11.44,26.58,19,34.19,3.05,24.11,32.23,25.73,44.88-19.58-71.34-19.27-21.73L348,221l-59.36-48.79-30-32.53-25.3-17.33L216,96.66s-30,17.53-29.38,17-20.29,35.87-20.29,35.87Z" transform="translate(1.04 30.87)"/></g><g class="cls-18"><rect class="cls-19" x="144.63" y="154.36" width="36.14" height="26.01"/></g><g class="cls-2"><polygon class="cls-6" points="177.04 154.36 144.63 165.31 167.35 180.37 180.77 156.87 177.04 154.36"/></g><g class="cls-20"><polygon class="cls-21" points="345.62 467.34 87.18 233.67 345.62 0 604.06 233.67 345.62 467.34"/></g><g class="cls-2"><polygon class="cls-6" points="251.7 115.85 217.48 127.08 232.84 151.34 233.87 152.96 260.18 170.07 290.17 202.6 349.52 251.39 400.1 257.96 418.9 280.14 438.48 351.48 473.75 337.66 453.75 265.42 436.32 244.74 396.17 234.18 326.71 187.01 294.1 155.28 267.15 141.32 251.7 115.85"/><path class="cls-22" d="M.24,239,.05,153.28,0,110.45C.09,96.17.08,81.89.24,67.61H.3c.16,14.28.16,28.56.24,42.84L.49,153.28.3,239Z" transform="translate(1.04 30.87)"/><polygon class="cls-22" points="345.72 428.87 173.42 349.51 87.29 309.8 1.29 269.85 1.32 269.81 87.54 309.37 173.62 349.16 345.75 428.82 345.72 428.87"/><line class="cls-23" x1="125.9" y1="275.35" x2="160.96" y2="261.98"/><line class="cls-23" x1="144.32" y1="280.34" x2="180.96" y2="266.67"/><line class="cls-23" x1="172.87" y1="280.89" x2="207.68" y2="266.4"/><line class="cls-23" x1="210.73" y1="299.25" x2="243.11" y2="284.39"/><line class="cls-23" x1="237.36" y1="320.13" x2="273.22" y2="304.33"/><line class="cls-23" x1="265.86" y1="326.83" x2="303.7" y2="311.33"/><line class="cls-9" x1="288.58" y1="343.97" x2="324.76" y2="326.99"/><line class="cls-9" x1="322.89" y1="344.81" x2="357.89" y2="328.1"/><line class="cls-9" x1="343.99" y1="358.73" x2="383.08" y2="342.31"/><line class="cls-9" x1="213.17" y1="192.69" x2="247.82" y2="178.92"/><line class="cls-9" x1="241.6" y1="217.33" x2="275.09" y2="203.05"/><line class="cls-9" x1="265.53" y1="257.7" x2="299.35" y2="240.9"/><line class="cls-9" x1="293.77" y1="269.02" x2="327.87" y2="252.34"/><line class="cls-9" x1="319.84" y1="288.96" x2="354.45" y2="271.32"/><line class="cls-9" x1="354.12" y1="290.26" x2="388.64" y2="274.37"/><line class="cls-24" x1="233.87" y1="152.96" x2="267.15" y2="141.32"/><line class="cls-24" x1="260.18" y1="170.07" x2="294.1" y2="155.28"/><line class="cls-24" x1="290.16" y1="202.6" x2="324.51" y2="187.39"/><line class="cls-24" x1="349.52" y1="251.39" x2="396.17" y2="234.18"/><line class="cls-24" x1="400.1" y1="257.96" x2="436.32" y2="244.74"/><line class="cls-24" x1="418.9" y1="280.14" x2="453.75" y2="265.42"/><g class="cls-25"><g class="cls-26"><g class="cls-27"><path class="cls-28" d="M14,257.69l-.43-.08-.41-.09-.39-.09-.36-.1-.18.1.2.11.13.09s0,0,0,.07a.2.2,0,0,1-.08.08l-.18.11L10,259.26l-.28.15a.79.79,0,0,1-.23.06.75.75,0,0,1-.23,0L9,259.37l-.2.11,1.7.74.2-.11a1.28,1.28,0,0,1-.22-.13s-.07-.07-.06-.11a.23.23,0,0,1,.1-.12l.25-.16L14,257.69" transform="translate(1.04 30.87)"/><path class="cls-28" d="M12.57,260.94a.13.13,0,0,1-.07-.19,1,1,0,0,1,.26-.3,4.86,4.86,0,0,1,.5-.37l.64-.4.67-.37c.22-.11.44-.21.65-.3a3.09,3.09,0,0,1,.55-.17.68.68,0,0,1,.38,0,.12.12,0,0,1,.08.19.93.93,0,0,1-.26.3,5,5,0,0,1-.49.37l-.63.39-.69.38c-.23.12-.45.22-.66.3a3.19,3.19,0,0,1-.55.17.67.67,0,0,1-.38,0m3.84-2.23a2,2,0,0,0-.77-.15,3.71,3.71,0,0,0-.86.1,5.83,5.83,0,0,0-.87.28,6.56,6.56,0,0,0-.79.39,5.11,5.11,0,0,0-.65.44,2.13,2.13,0,0,0-.46.47.55.55,0,0,0-.1.45.65.65,0,0,0,.41.37,2,2,0,0,0,.8.15,3.63,3.63,0,0,0,.88-.12,5.77,5.77,0,0,0,.87-.3,7,7,0,0,0,.77-.39,5.25,5.25,0,0,0,.64-.44,2.17,2.17,0,0,0,.45-.47.54.54,0,0,0,.1-.45.65.65,0,0,0-.41-.37" transform="translate(1.04 30.87)"/><path class="cls-28" d="M31.07,265l-.29-.1-.3-.05-.32,0-.33,0-.95.19,0,.15.35-.05.34,0,.32,0a1.14,1.14,0,0,1,.27.07.52.52,0,0,1,.21.15.2.2,0,0,1,0,.17.42.42,0,0,1-.12.19,1.36,1.36,0,0,1-.25.19,3,3,0,0,1-.42.2,4.54,4.54,0,0,1-.49.16l-.56.13-.65.11-.49.07-.5.06-.5.05-.49,0-.18.11,2.37,1,.27-.11.3-.13.32-.14.33-.13-.12-.12-.36.08-.24,0-.19,0-.21-.08-1-.44,1.5-.13.74-.08.62-.1a4.12,4.12,0,0,0,.52-.14,2.6,2.6,0,0,0,.44-.2,1.34,1.34,0,0,0,.38-.31.49.49,0,0,0,.11-.31.42.42,0,0,0-.12-.28,1,1,0,0,0-.34-.22" transform="translate(1.04 30.87)"/><path class="cls-28" d="M30.14,268.54a.14.14,0,0,1-.08-.2,1,1,0,0,1,.26-.31,4.73,4.73,0,0,1,.5-.39l.64-.41.67-.38c.22-.12.44-.22.65-.31a3,3,0,0,1,.55-.18.71.71,0,0,1,.39,0,.14.14,0,0,1,.09.19,1,1,0,0,1-.25.31,4.72,4.72,0,0,1-.49.38l-.63.41-.69.39c-.23.12-.45.23-.66.31a3,3,0,0,1-.56.18.68.68,0,0,1-.39,0M34,266.24a2.06,2.06,0,0,0-.79-.15,3.61,3.61,0,0,0-.88.11,5.56,5.56,0,0,0-.88.29,6.53,6.53,0,0,0-.79.4,5,5,0,0,0-.65.45,2.07,2.07,0,0,0-.45.49.56.56,0,0,0-.09.47.7.7,0,0,0,.43.38,2.08,2.08,0,0,0,.82.16,3.54,3.54,0,0,0,.89-.12,5.64,5.64,0,0,0,.88-.3,6.73,6.73,0,0,0,.77-.4,4.91,4.91,0,0,0,.64-.45,2.09,2.09,0,0,0,.44-.49.55.55,0,0,0,.08-.46.71.71,0,0,0-.43-.38" transform="translate(1.04 30.87)"/><path class="cls-28" d="M51.7,273.84a1.88,1.88,0,0,0-.31-.1l-.32,0h-.31l-.29,0-.72.13,0,.16.34,0,.3,0,.26,0,.23.07h0a.46.46,0,0,1,.16.11.2.2,0,0,1,.06.14.26.26,0,0,1-.06.16.8.8,0,0,1-.21.17,1.24,1.24,0,0,1-.34.14,2,2,0,0,1-.4.06,3.49,3.49,0,0,1-.47,0l-.53-.07-.16.15.1,0,.1,0,.1,0,.09,0a.67.67,0,0,1,.22.14.3.3,0,0,1,.09.2.38.38,0,0,1-.1.24,1.34,1.34,0,0,1-.34.29,2.62,2.62,0,0,1-.39.2,1.88,1.88,0,0,1-.37.11,1.29,1.29,0,0,1-.33,0,.82.82,0,0,1-.27-.06.77.77,0,0,1-.21-.13.54.54,0,0,1-.12-.15.61.61,0,0,1-.05-.15,1.13,1.13,0,0,1,0-.12.08.08,0,0,0,0,0v0l0,0H47l-.12,0-.1,0-.06,0,0,0a.18.18,0,0,0,0,.05.27.27,0,0,0,0,.07.28.28,0,0,0,0,.09l.09.11.14.11.19.1a2.65,2.65,0,0,0,.52.14,5.78,5.78,0,0,0,.84.08,4.59,4.59,0,0,0,1-.07,2.6,2.6,0,0,0,.9-.33,1,1,0,0,0,.27-.23.51.51,0,0,0,.12-.25.41.41,0,0,0-.06-.26.85.85,0,0,0-.26-.26l0,0h.76l.17,0,.16,0,.15-.05.14-.07a.92.92,0,0,0,.27-.24.35.35,0,0,0,.07-.25.41.41,0,0,0-.14-.25,1.22,1.22,0,0,0-.36-.22" transform="translate(1.04 30.87)"/><path class="cls-28" d="M50.93,277.54a.15.15,0,0,1-.09-.21,1,1,0,0,1,.25-.33,4.85,4.85,0,0,1,.49-.4c.19-.14.41-.29.63-.43l.67-.4c.22-.12.44-.23.65-.32a3,3,0,0,1,.56-.18.7.7,0,0,1,.4,0,.15.15,0,0,1,.1.2.92.92,0,0,1-.24.32,4.66,4.66,0,0,1-.48.39c-.19.14-.4.28-.63.42l-.69.41c-.23.13-.45.24-.66.33a3.06,3.06,0,0,1-.56.19.69.69,0,0,1-.4,0m3.82-2.4a2.14,2.14,0,0,0-.82-.16,3.59,3.59,0,0,0-.89.11,5.48,5.48,0,0,0-.89.31,6.36,6.36,0,0,0-.8.42,4.7,4.7,0,0,0-.64.47,2,2,0,0,0-.43.51.59.59,0,0,0-.07.49.78.78,0,0,0,.46.4,2.16,2.16,0,0,0,.85.17,3.58,3.58,0,0,0,.91-.12,5.45,5.45,0,0,0,.88-.32,6.6,6.6,0,0,0,.77-.42,5,5,0,0,0,.63-.47,2,2,0,0,0,.43-.51.57.57,0,0,0,.06-.48.78.78,0,0,0-.46-.4" transform="translate(1.04 30.87)"/><path class="cls-28" d="M71.09,284.91l.73-.17.7-.15.67-.14.65-.13h0l-1.64,1.08-1.12-.48m4.45-.81-.46-.2-1.05.18-1.13.21-1.18.23-1.21.25-.23.15,1.6.69-.42.28-.24.14a.61.61,0,0,1-.21.05.78.78,0,0,1-.24,0l-.32-.1-.2.13,1.87.81.2-.13-.24-.14c-.05,0-.08-.07-.08-.11a.16.16,0,0,1,.07-.11l.2-.15.43-.28.54.23.34-.23-.54-.23,2.51-1.65" transform="translate(1.04 30.87)"/><path class="cls-28" d="M74,287.54a.16.16,0,0,1-.11-.22,1,1,0,0,1,.24-.34,4.65,4.65,0,0,1,.48-.42c.19-.15.41-.3.63-.45s.44-.28.67-.41a7.18,7.18,0,0,1,.65-.34,2.77,2.77,0,0,1,.57-.19.71.71,0,0,1,.41,0,.16.16,0,0,1,.11.21.89.89,0,0,1-.23.34,4.38,4.38,0,0,1-.48.41c-.19.15-.4.3-.62.44s-.46.29-.68.43-.45.25-.66.34a2.84,2.84,0,0,1-.57.2.7.7,0,0,1-.41,0m3.8-2.51a2.25,2.25,0,0,0-.85-.17,3.6,3.6,0,0,0-.91.12,5.16,5.16,0,0,0-.89.32,5.74,5.74,0,0,0-.8.44,4.46,4.46,0,0,0-.64.49,1.9,1.9,0,0,0-.42.54.61.61,0,0,0,0,.51.87.87,0,0,0,.49.42,2.23,2.23,0,0,0,.88.17,3.57,3.57,0,0,0,.93-.13,5.34,5.34,0,0,0,.89-.33,6.16,6.16,0,0,0,.77-.44,4.61,4.61,0,0,0,.63-.49,1.92,1.92,0,0,0,.41-.53.59.59,0,0,0,0-.51.87.87,0,0,0-.5-.42" transform="translate(1.04 30.87)"/><path class="cls-28" d="M101.21,295.14l-2.09-.9-2.25,1.23.17,0,.2,0,.22.06.21.08a1.11,1.11,0,0,1,.36.23.43.43,0,0,1,.13.27.45.45,0,0,1-.09.29,1.12,1.12,0,0,1-.3.29,2.58,2.58,0,0,1-.38.22,2,2,0,0,1-.38.13,1.31,1.31,0,0,1-.36,0,.94.94,0,0,1-.33-.07,1,1,0,0,1-.25-.16.79.79,0,0,1-.15-.17.8.8,0,0,1-.08-.17.82.82,0,0,1,0-.14v0l0,0h-.31l-.14,0-.12,0-.09,0-.05,0,0,.05a.14.14,0,0,0,0,.06.28.28,0,0,0,0,.07.29.29,0,0,0,0,.11l.1.12.15.12.19.1.34.11.41.08.45,0h.47a4.82,4.82,0,0,0,.55,0,3.52,3.52,0,0,0,.48-.09,2.76,2.76,0,0,0,.4-.14,2.05,2.05,0,0,0,.33-.18,1,1,0,0,0,.31-.31.5.5,0,0,0,.07-.34.62.62,0,0,0-.2-.34,1.63,1.63,0,0,0-.49-.31l-.18-.06-.25-.06-.29-.06-.31-.05,1.14-.57,1.67.72.79-.32v-.06" transform="translate(1.04 30.87)"/><path class="cls-28" d="M99.67,298.65a.18.18,0,0,1-.12-.23.92.92,0,0,1,.23-.36,4.24,4.24,0,0,1,.47-.44c.19-.15.4-.31.62-.47s.44-.3.66-.43a7.13,7.13,0,0,1,.65-.35,2.77,2.77,0,0,1,.57-.2.73.73,0,0,1,.43,0,.18.18,0,0,1,.12.22.87.87,0,0,1-.22.35,4.27,4.27,0,0,1-.47.43c-.19.15-.4.31-.62.46s-.45.31-.68.45a6.74,6.74,0,0,1-.66.36,2.77,2.77,0,0,1-.57.21.72.72,0,0,1-.42,0m3.77-2.63a2.34,2.34,0,0,0-.88-.18,3.52,3.52,0,0,0-.93.12,5.14,5.14,0,0,0-.9.33,5.67,5.67,0,0,0-.79.46,4.24,4.24,0,0,0-.63.52,1.89,1.89,0,0,0-.4.56.65.65,0,0,0,0,.54,1,1,0,0,0,.53.44,2.33,2.33,0,0,0,.92.18,3.46,3.46,0,0,0,.95-.13,5.06,5.06,0,0,0,.9-.35,6,6,0,0,0,.77-.46,4.45,4.45,0,0,0,.62-.52,1.86,1.86,0,0,0,.4-.56.64.64,0,0,0,0-.53,1,1,0,0,0-.54-.44" transform="translate(1.04 30.87)"/><path class="cls-28" d="M127.77,310.8a.31.31,0,0,1-.18-.18.44.44,0,0,1,0-.29,1.3,1.3,0,0,1,.24-.38,3.14,3.14,0,0,1,.49-.43l.14-.1.14-.1.14-.08.13-.07.13,0,.12,0,.12,0,.12,0a.52.52,0,0,1,.24.19.35.35,0,0,1,0,.26.71.71,0,0,1-.15.3,1.7,1.7,0,0,1-.34.32,3.86,3.86,0,0,1-.35.23,2.33,2.33,0,0,1-.36.18,1.25,1.25,0,0,1-.36.09.72.72,0,0,1-.34-.05m4.95-2.28-.27-.08-.3-.08-.31-.07-.3-.06a6,6,0,0,0-.94-.08,6.51,6.51,0,0,0-1.08.08,5.63,5.63,0,0,0-1.12.29,4.39,4.39,0,0,0-1,.56,2.17,2.17,0,0,0-.54.54.87.87,0,0,0-.16.51.71.71,0,0,0,.19.45,1.48,1.48,0,0,0,.53.35,2.8,2.8,0,0,0,.76.2,3.48,3.48,0,0,0,.81,0,3.4,3.4,0,0,0,.77-.18,2.65,2.65,0,0,0,.66-.35,1.34,1.34,0,0,0,.37-.39.61.61,0,0,0,.09-.39.64.64,0,0,0-.19-.36,1.44,1.44,0,0,0-.47-.3l-.11,0-.13,0-.15,0-.16,0-.45,0a4.7,4.7,0,0,1,.72-.28,4.77,4.77,0,0,1,.66-.15,4.69,4.69,0,0,1,.57,0h.45l.26,0,.26,0,.24,0,.21.05.17-.19" transform="translate(1.04 30.87)"/><path class="cls-28" d="M131.18,312.29A.21.21,0,0,1,131,312a.89.89,0,0,1,.21-.38,4.2,4.2,0,0,1,.46-.47c.19-.16.4-.33.61-.5s.44-.32.66-.46a6.25,6.25,0,0,1,.65-.37,2.59,2.59,0,0,1,.58-.21.74.74,0,0,1,.44,0,.21.21,0,0,1,.14.24.86.86,0,0,1-.2.37,4.06,4.06,0,0,1-.45.46c-.18.16-.39.33-.61.49s-.45.33-.68.47a6.66,6.66,0,0,1-.66.38,2.82,2.82,0,0,1-.58.22.72.72,0,0,1-.44,0m3.73-2.79a2.44,2.44,0,0,0-.93-.19,3.48,3.48,0,0,0-1,.13,4.82,4.82,0,0,0-.91.35,5.3,5.3,0,0,0-.79.49,4.08,4.08,0,0,0-.62.55,1.83,1.83,0,0,0-.38.6.71.71,0,0,0,0,.57,1.1,1.1,0,0,0,.58.47,2.46,2.46,0,0,0,1,.2,3.4,3.4,0,0,0,1-.14,4.9,4.9,0,0,0,.91-.37,5.72,5.72,0,0,0,.77-.48,4.12,4.12,0,0,0,.6-.55,1.83,1.83,0,0,0,.37-.59.69.69,0,0,0,0-.56,1.11,1.11,0,0,0-.58-.47" transform="translate(1.04 30.87)"/><path class="cls-28" d="M166.25,323l-3.08-1.32-.24.15-.27.17-.32.19-.38.22.28.12.34-.11a.92.92,0,0,1,.25,0,.8.8,0,0,1,.24,0l.31.12,1.61.69-1.27.39-1.33.39-1.39.38-1.43.37,0,.08.86.28,1.45-.51,1.47-.51,1.48-.51,1.46-.51V323" transform="translate(1.04 30.87)"/><path class="cls-28" d="M164.79,326.84a.24.24,0,0,1-.16-.26.89.89,0,0,1,.19-.41,4.06,4.06,0,0,1,.45-.5c.18-.17.39-.35.6-.52s.43-.34.65-.49a6.09,6.09,0,0,1,.65-.39,2.47,2.47,0,0,1,.58-.23.75.75,0,0,1,.46,0,.24.24,0,0,1,.17.25.85.85,0,0,1-.18.4,3.82,3.82,0,0,1-.44.49c-.18.17-.38.35-.6.52s-.44.35-.67.5a6.55,6.55,0,0,1-.66.4,2.56,2.56,0,0,1-.59.23.75.75,0,0,1-.45,0m3.67-3a2.57,2.57,0,0,0-1-.2,3.4,3.4,0,0,0-1,.13,4.55,4.55,0,0,0-.92.37,5,5,0,0,0-.79.52,3.88,3.88,0,0,0-.6.58,1.81,1.81,0,0,0-.35.63.77.77,0,0,0,.06.61,1.26,1.26,0,0,0,.63.5,2.58,2.58,0,0,0,1,.21,3.4,3.4,0,0,0,1-.15,4.58,4.58,0,0,0,.91-.39,5.24,5.24,0,0,0,.76-.51,4.07,4.07,0,0,0,.59-.58,1.81,1.81,0,0,0,.35-.63.76.76,0,0,0-.06-.6,1.28,1.28,0,0,0-.64-.5" transform="translate(1.04 30.87)"/><path class="cls-28" d="M195,339.91a.72.72,0,0,1-.25-.17.51.51,0,0,1-.13-.25.53.53,0,0,1,0-.32,1.08,1.08,0,0,1,.29-.35,1.77,1.77,0,0,1,.26-.19l.29-.13.3-.08.3,0c.11.13.21.25.29.37a1.32,1.32,0,0,1,.18.33.5.5,0,0,1,0,.3.66.66,0,0,1-.2.29,1.41,1.41,0,0,1-.3.21,1.29,1.29,0,0,1-.34.11,1.26,1.26,0,0,1-.73-.08m2.38-1.61a3.48,3.48,0,0,1-.26-.33,1.12,1.12,0,0,1-.15-.3.46.46,0,0,1,0-.27.58.58,0,0,1,.18-.26,1.11,1.11,0,0,1,.23-.15,1.17,1.17,0,0,1,.28-.09,1.13,1.13,0,0,1,.3,0,1,1,0,0,1,.31.07.61.61,0,0,1,.2.14.41.41,0,0,1,.11.21.43.43,0,0,1,0,.26,1,1,0,0,1-.25.31,1.91,1.91,0,0,1-.26.19l-.25.12-.22.07-.19,0m1.23-1.5a3.21,3.21,0,0,0-1.49-.25,2.58,2.58,0,0,0-.66.14,1.64,1.64,0,0,0-.51.29.83.83,0,0,0-.22.29.62.62,0,0,0,0,.3.91.91,0,0,0,.08.3,1.81,1.81,0,0,0,.17.29h-1.14l-.19,0-.22,0-.22.09a1.08,1.08,0,0,0-.22.15.87.87,0,0,0-.29.42.61.61,0,0,0,0,.43,1.22,1.22,0,0,0,.35.41,2.8,2.8,0,0,0,.63.37,3.32,3.32,0,0,0,.69.21,3.82,3.82,0,0,0,.8.07,2.9,2.9,0,0,0,.79-.12,1.8,1.8,0,0,0,.66-.35.89.89,0,0,0,.26-.34.64.64,0,0,0,0-.34,1.08,1.08,0,0,0-.13-.34,2.53,2.53,0,0,0-.22-.32h1l.21,0,.18-.05.15-.07.13-.09a.81.81,0,0,0,.26-.36.55.55,0,0,0,0-.38,1,1,0,0,0-.28-.37,2.15,2.15,0,0,0-.55-.32" transform="translate(1.04 30.87)"/><path class="cls-28" d="M199,341.64a.27.27,0,0,1-.19-.27.89.89,0,0,1,.17-.43,3.8,3.8,0,0,1,.43-.53c.17-.18.38-.37.59-.56s.42-.35.64-.51a5.78,5.78,0,0,1,.64-.42,2.37,2.37,0,0,1,.59-.24.78.78,0,0,1,.48,0,.28.28,0,0,1,.19.27.84.84,0,0,1-.16.42,3.65,3.65,0,0,1-.42.52c-.17.18-.37.37-.58.55s-.43.37-.66.53a5.81,5.81,0,0,1-.65.43,2.45,2.45,0,0,1-.59.24.75.75,0,0,1-.47,0m3.6-3.13a2.73,2.73,0,0,0-1-.22,3.42,3.42,0,0,0-1,.14,4.42,4.42,0,0,0-.93.39,4.82,4.82,0,0,0-.78.55,3.67,3.67,0,0,0-.58.62,1.76,1.76,0,0,0-.32.67.87.87,0,0,0,.11.64,1.46,1.46,0,0,0,.69.53,2.76,2.76,0,0,0,1.06.23,3.33,3.33,0,0,0,1-.16,4.38,4.38,0,0,0,.92-.41,4.92,4.92,0,0,0,.75-.54,3.71,3.71,0,0,0,.57-.62,1.77,1.77,0,0,0,.31-.67.85.85,0,0,0-.11-.64,1.47,1.47,0,0,0-.69-.53" transform="translate(1.04 30.87)"/><path class="cls-28" d="M231.17,353.38a.82.82,0,0,1-.34-.24.52.52,0,0,1-.11-.32.75.75,0,0,1,.1-.35,1.44,1.44,0,0,1,.28-.36,2.35,2.35,0,0,1,.31-.24,1.93,1.93,0,0,1,.36-.19,1.22,1.22,0,0,1,.37-.09.81.81,0,0,1,.37.06.49.49,0,0,1,.29.27.54.54,0,0,1,0,.37,1.61,1.61,0,0,1-.24.42,3.32,3.32,0,0,1-.38.41l-.09.09-.11.09-.12.1-.15.11h-.12l-.13,0-.14,0-.15-.05m1.74-1.88a3.49,3.49,0,0,0-1.89-.24,3.08,3.08,0,0,0-.76.21,1.91,1.91,0,0,0-.53.33,1.17,1.17,0,0,0-.31.45.73.73,0,0,0,0,.46,1,1,0,0,0,.3.44,2.24,2.24,0,0,0,.63.39l.11,0,.13,0,.15,0,.18,0,.54,0a3.53,3.53,0,0,1-.78.36,4.78,4.78,0,0,1-.93.19,5.54,5.54,0,0,1-1,0,6,6,0,0,1-1.08-.19l-.14.22.38.14.45.13.45.11.39.07a6.47,6.47,0,0,0,1.18.06,5.8,5.8,0,0,0,1.14-.15,4.69,4.69,0,0,0,1-.37,3.66,3.66,0,0,0,.87-.6,2,2,0,0,0,.44-.58,1,1,0,0,0,.11-.59,1,1,0,0,0-.27-.55,2.07,2.07,0,0,0-.7-.46" transform="translate(1.04 30.87)"/><path class="cls-28" d="M233.66,356.66a.32.32,0,0,1-.21-.29.9.9,0,0,1,.15-.46,3.58,3.58,0,0,1,.41-.56,8,8,0,0,1,.57-.59c.2-.19.41-.38.63-.55a5.39,5.39,0,0,1,.64-.44,2.27,2.27,0,0,1,.59-.25.8.8,0,0,1,.5,0,.32.32,0,0,1,.21.28.87.87,0,0,1-.14.45,3.5,3.5,0,0,1-.4.55c-.17.19-.36.39-.56.58s-.43.39-.64.56a5.66,5.66,0,0,1-.65.45,2.28,2.28,0,0,1-.6.26.77.77,0,0,1-.49,0m3.51-3.32a2.88,2.88,0,0,0-1.07-.23,3.34,3.34,0,0,0-1,.15,4.22,4.22,0,0,0-.94.42,4.51,4.51,0,0,0-.77.58,3.46,3.46,0,0,0-.56.65,1.76,1.76,0,0,0-.28.71,1,1,0,0,0,.15.68,1.67,1.67,0,0,0,.75.57,2.91,2.91,0,0,0,1.12.24,3.26,3.26,0,0,0,1.05-.16,4.21,4.21,0,0,0,.93-.44,4.71,4.71,0,0,0,.74-.57,3.57,3.57,0,0,0,.55-.65,1.74,1.74,0,0,0,.28-.71.94.94,0,0,0-.15-.68,1.66,1.66,0,0,0-.75-.56" transform="translate(1.04 30.87)"/><path class="cls-28" d="M272,368.28l-.63-.14-.6-.14-.58-.15-.56-.16-.16.16.35.18.23.14a.21.21,0,0,1,.09.12.17.17,0,0,1,0,.13,1.45,1.45,0,0,1-.16.18l-2.09,2.14a1.75,1.75,0,0,1-.26.23.56.56,0,0,1-.25.1.86.86,0,0,1-.32,0,4.34,4.34,0,0,1-.46-.15l-.18.18,2.83,1.23.18-.18a3.13,3.13,0,0,1-.39-.22.42.42,0,0,1-.17-.18.22.22,0,0,1,0-.19,1.49,1.49,0,0,1,.21-.25l2.91-3" transform="translate(1.04 30.87)"/><path class="cls-28" d="M272.56,373.5a.36.36,0,0,1-.24-.31,1,1,0,0,1,.12-.49,3.45,3.45,0,0,1,.38-.59,7.47,7.47,0,0,1,.55-.63c.19-.2.4-.4.61-.58a5.09,5.09,0,0,1,.63-.47,2.18,2.18,0,0,1,.6-.27.82.82,0,0,1,.52,0,.36.36,0,0,1,.24.3.89.89,0,0,1-.11.48,3.39,3.39,0,0,1-.37.58,7.86,7.86,0,0,1-.54.62c-.2.21-.41.41-.63.6a5.17,5.17,0,0,1-.64.48,2.21,2.21,0,0,1-.61.27.8.8,0,0,1-.51,0M276,370a3.05,3.05,0,0,0-1.13-.25,3.3,3.3,0,0,0-1.07.15,4,4,0,0,0-.94.44,4.16,4.16,0,0,0-.76.62,3.33,3.33,0,0,0-.53.7,1.8,1.8,0,0,0-.24.76,1.11,1.11,0,0,0,.21.73,1.93,1.93,0,0,0,.83.61,3.08,3.08,0,0,0,1.18.26,3.2,3.2,0,0,0,1.08-.17,3.86,3.86,0,0,0,.93-.46,4.43,4.43,0,0,0,.73-.61,3.44,3.44,0,0,0,.52-.69,1.78,1.78,0,0,0,.24-.75,1.09,1.09,0,0,0-.21-.72,2,2,0,0,0-.83-.6" transform="translate(1.04 30.87)"/><path class="cls-28" d="M277.22,375.51a.38.38,0,0,1-.25-.31.94.94,0,0,1,.11-.49,3.46,3.46,0,0,1,.38-.6,7.66,7.66,0,0,1,.55-.63c.19-.2.4-.4.61-.58a5,5,0,0,1,.63-.47,2.14,2.14,0,0,1,.6-.27.81.81,0,0,1,.52,0,.37.37,0,0,1,.25.31.9.9,0,0,1-.11.48,3.32,3.32,0,0,1-.37.59,7.84,7.84,0,0,1-.54.63c-.2.21-.41.42-.63.6a5.3,5.3,0,0,1-.64.48,2.17,2.17,0,0,1-.6.28.79.79,0,0,1-.51,0m3.39-3.56a3.08,3.08,0,0,0-1.14-.25,3.29,3.29,0,0,0-1.07.15,4,4,0,0,0-.94.45,4.22,4.22,0,0,0-.76.62,3.28,3.28,0,0,0-.53.7,1.79,1.79,0,0,0-.24.76,1.13,1.13,0,0,0,.21.74,2,2,0,0,0,.83.61,3.1,3.1,0,0,0,1.18.26,3.17,3.17,0,0,0,1.08-.17,3.91,3.91,0,0,0,.93-.47,4.48,4.48,0,0,0,.73-.62,3.38,3.38,0,0,0,.52-.7,1.79,1.79,0,0,0,.23-.76,1.11,1.11,0,0,0-.22-.73,2,2,0,0,0-.83-.6" transform="translate(1.04 30.87)"/></g></g></g></g></g></g></g></g></svg>
