<svg xmlns="http://www.w3.org/2000/svg" xmlns:xlink="http://www.w3.org/1999/xlink" viewBox="0 0 1166.96 149.76"><defs><style>.cls-1,.cls-10,.cls-13,.cls-16,.cls-29,.cls-30,.cls-33,.cls-5,.cls-58,.cls-7{fill:none;}.cls-2{clip-path:url(#clip-path);}.cls-3{clip-path:url(#clip-path-2);}.cls-4{fill:url(#linear-gradient);}.cls-5,.cls-7{stroke:#a3a3a3;}.cls-10,.cls-13,.cls-16,.cls-29,.cls-30,.cls-33,.cls-5,.cls-53,.cls-54,.cls-55,.cls-56,.cls-7{stroke-miterlimit:10;}.cls-5{stroke-width:6px;}.cls-6{fill:#b7b7b7;}.cls-7{stroke-width:0.75px;}.cls-8{fill:#e0e0e0;}.cls-9{fill:#4b4c4c;}.cls-10,.cls-13,.cls-33{stroke:#b3b3b3;}.cls-10,.cls-53,.cls-54,.cls-55,.cls-56{stroke-width:3px;}.cls-11{clip-path:url(#clip-path-4);}.cls-12{fill:url(#linear-gradient-2);}.cls-13{stroke-width:0.5px;}.cls-14{clip-path:url(#clip-path-6);}.cls-15{fill:url(#linear-gradient-3);}.cls-16{stroke:#ededed;}.cls-16,.cls-29,.cls-30,.cls-33{stroke-width:0.25px;}.cls-17{clip-path:url(#clip-path-8);}.cls-18{fill:url(#linear-gradient-4);}.cls-19{clip-path:url(#clip-path-10);}.cls-20{fill:url(#linear-gradient-5);}.cls-21{clip-path:url(#clip-path-12);}.cls-22{fill:url(#linear-gradient-6);}.cls-23{clip-path:url(#clip-path-14);}.cls-24{fill:url(#linear-gradient-7);}.cls-25{clip-path:url(#clip-path-16);}.cls-26{fill:url(#linear-gradient-8);}.cls-27{clip-path:url(#clip-path-18);}.cls-28{fill:url(#linear-gradient-9);}.cls-29{stroke:#efefef;}.cls-30{stroke:#e2e2e2;}.cls-31{fill:#a3a3a3;}.cls-32{clip-path:url(#clip-path-20);}.cls-34{clip-path:url(#clip-path-21);}.cls-35{fill:#36c2de;}.cls-36{clip-path:url(#clip-path-23);}.cls-37{fill:#6d6d6d;}.cls-38{fill:#969696;}.cls-39{fill:#565656;}.cls-40{fill:#73d9ea;}.cls-41{clip-path:url(#clip-path-24);}.cls-42{fill:url(#radial-gradient);}.cls-43{clip-path:url(#clip-path-25);}.cls-44{fill:url(#radial-gradient-2);}.cls-45{clip-path:url(#clip-path-26);}.cls-46{fill:url(#radial-gradient-3);}.cls-47{clip-path:url(#clip-path-27);}.cls-48{fill:url(#radial-gradient-4);}.cls-49{clip-path:url(#clip-path-28);}.cls-50{fill:url(#radial-gradient-5);}.cls-51{clip-path:url(#clip-path-29);}.cls-52{fill:url(#radial-gradient-6);}.cls-53{fill:url(#linear-gradient-10);stroke:url(#linear-gradient-11);}.cls-54{fill:url(#linear-gradient-12);stroke:url(#linear-gradient-13);}.cls-55{fill:url(#linear-gradient-14);stroke:url(#linear-gradient-15);}.cls-56{fill:url(#linear-gradient-16);stroke:url(#linear-gradient-17);}.cls-57{fill:#333;}.cls-58{stroke:#333;stroke-linecap:round;stroke-width:2px;}</style><clipPath id="clip-path" transform="translate(1.96 4.76)"><rect class="cls-1" y="16.01" width="169" height="115.93"/></clipPath><clipPath id="clip-path-2" transform="translate(1.96 4.76)"><rect class="cls-1" x="21.46" y="17.85" width="128.27" height="77.3"/></clipPath><linearGradient id="linear-gradient" x1="206.71" y1="-2650.89" x2="207.32" y2="-2650.89" gradientTransform="matrix(0, 125.6, 125.6, 0, 333043.26, -25940.27)" gradientUnits="userSpaceOnUse"><stop offset="0" stop-color="#0a5966"/><stop offset="1" stop-color="#c2ebff"/></linearGradient><clipPath id="clip-path-4" transform="translate(1.96 4.76)"><path class="cls-1" d="M69.15,45.17l-3.24,7.51L62.56,50l-2,3.07,7.57,4.53,2.95.77,3.94,0,5.22,2.93,4.09,3.15,4.74,1.21a.47.47,0,0,1,.18.09l3,2.49,4.88.18,3.71,2.32,2.87,3.59-3.16-5.88-4-6.19L91.54,62l-3.84-3.25-4.16-1.85L79.61,50l-3.8-3.67L73.2,41.66Z"/></clipPath><linearGradient id="linear-gradient-2" x1="280.65" y1="-2603.72" x2="281.27" y2="-2603.72" gradientTransform="matrix(-26.61, 0, 0, 26.61, 7560.54, 69348.64)" gradientUnits="userSpaceOnUse"><stop offset="0" stop-color="#9b9b9b"/><stop offset="1" stop-color="#686868"/></linearGradient><clipPath id="clip-path-6" transform="translate(1.96 4.76)"><path class="cls-1" d="M56.28,54.87l6.67,4.95,2.72.81,4.21.09,5.58,3,3.91,3.54,4.11,1.1L86.93,71l5.11.18s3.51,2.59,3.58,2.61,2.16,3.08,2.16,3.08l6-2.56-2.87-3.59-3.71-2.32-4.88-.18-3.11-2.55-4.49-1.14L80,61.19l-5-2.83-3.94,0-2.95-.77-7.57-4.53Z"/></clipPath><linearGradient id="linear-gradient-3" x1="160.38" y1="-2620.87" x2="160.99" y2="-2620.87" gradientTransform="matrix(0, -76.87, -76.87, 0, -201375.51, 12415.74)" gradientUnits="userSpaceOnUse"><stop offset="0" stop-color="#f7f7f7"/><stop offset="0.32" stop-color="#f7f7f7"/><stop offset="0.97" stop-color="#ddd"/><stop offset="1" stop-color="#b3b3b3"/></linearGradient><clipPath id="clip-path-8" transform="translate(1.96 4.76)"><polygon class="cls-1" points="56.4 57.12 97.73 76.83 95.56 73.75 91.98 71.14 86.88 70.96 83.58 68.21 79.33 67.08 75.4 63.67 69.82 60.68 65.61 60.59 62.9 59.78 56.22 54.83 56.4 57.12"/></clipPath><linearGradient id="linear-gradient-4" x1="463.37" y1="-2517.05" x2="463.98" y2="-2517.05" gradientTransform="matrix(-9.17, 0, 0, 9.17, 4329.29, 23149.02)" gradientUnits="userSpaceOnUse"><stop offset="0" stop-color="#68c9e0"/><stop offset="1" stop-color="#2b8ea5"/></linearGradient><clipPath id="clip-path-10" transform="translate(1.96 4.76)"><polygon class="cls-1" points="62.56 50.03 65.91 52.69 67.79 48.33 67.39 48.03 62.56 50.03"/></clipPath><linearGradient id="linear-gradient-5" x1="157.75" y1="-2982.2" x2="158.37" y2="-2982.2" gradientTransform="matrix(8.5, 0, 0, -8.5, -1276.23, -25290.88)" gradientUnits="userSpaceOnUse"><stop offset="0" stop-color="#b3b3b3"/><stop offset="0.11" stop-color="#b3b3b3"/><stop offset="0.43" stop-color="#c1c1c1"/><stop offset="1" stop-color="#c1c1c1"/></linearGradient><clipPath id="clip-path-12" transform="translate(1.96 4.76)"><polygon class="cls-1" points="73.2 41.66 75.81 46.34 79.61 50.01 83.53 56.94 87.69 58.79 91.54 62.04 96.59 62.25 100.56 68.44 103.73 74.32 109.02 72.23 105.23 64.91 101.68 59.66 96.64 59.16 92.72 56.07 88.51 54.2 84.68 47.59 80.92 44.1 78.64 39.67 73.2 41.66"/></clipPath><linearGradient id="linear-gradient-6" x1="160.21" y1="-2620.55" x2="160.83" y2="-2620.55" gradientTransform="matrix(0, -76.28, -76.28, 0, -199792.48, 12300.59)" xlink:href="#linear-gradient-3"/><clipPath id="clip-path-14" transform="translate(1.96 4.76)"><path class="cls-1" d="M72,38.49h0m0,0c0,.13-3,5.85-3,5.85l-3.35-2.46-1.79,7.59L67.39,48l.4.3,1.36-3.16,4.05-3.51,5.44-2,2.28,4.42,3.76,3.49,3.83,6.61,4.2,1.86,3.92,3.09,5,.5,3.55,5.25L109,72.23,106.14,60.6l-2.84-3.54L95.84,56l-8.75-8-4.42-5.3L78.94,39.9l-2.56-4.18s-4.2,2.72-4.33,2.77"/></clipPath><linearGradient id="linear-gradient-7" x1="271.44" y1="-2608.11" x2="272.05" y2="-2608.11" gradientTransform="matrix(-29.46, 0, 0, 29.46, 8094.93, 76899.57)" gradientUnits="userSpaceOnUse"><stop offset="0" stop-color="#ccc"/><stop offset="1" stop-color="#919191"/></linearGradient><clipPath id="clip-path-16" transform="translate(1.96 4.76)"><polygon class="cls-1" points="65.71 41.88 69.06 44.33 71.04 40.5 70.49 40.09 65.71 41.88"/></clipPath><linearGradient id="linear-gradient-8" x1="158" y1="-2976.8" x2="158.61" y2="-2976.8" gradientTransform="matrix(8.65, 0, 0, -8.65, -1299.72, -25716)" xlink:href="#linear-gradient-5"/><clipPath id="clip-path-18" transform="translate(1.96 4.76)"><polygon class="cls-1" points="76.45 35.65 78.71 39.6 78.86 39.87 82.74 42.65 87.16 47.96 95.91 55.91 103.37 56.98 106.14 60.6 109.02 72.23 114.22 69.98 111.27 58.2 108.71 54.83 102.79 53.11 92.55 45.42 87.74 40.24 83.77 37.97 81.49 33.81 76.45 35.65"/></clipPath><linearGradient id="linear-gradient-9" x1="162.11" y1="-2622.72" x2="162.73" y2="-2622.72" gradientTransform="matrix(0, -82.84, -82.84, 0, -217177.51, 13508.15)" xlink:href="#linear-gradient-3"/><clipPath id="clip-path-20" transform="translate(1.96 4.76)"><polygon class="cls-1" points="23.83 22.73 23.99 93.1 147.4 93.71 148.22 22.73 23.83 22.73"/></clipPath><clipPath id="clip-path-21" transform="translate(1.96 4.76)"><rect class="cls-1" x="521.67" y="21.43" width="127.1" height="83.57"/></clipPath><clipPath id="clip-path-23" transform="translate(1.96 4.76)"><rect class="cls-1" x="1002.52" width="162.48" height="145"/></clipPath><clipPath id="clip-path-24" transform="translate(1.96 4.76)"><polygon class="cls-1" points="1016.34 40.57 1007.42 40.02 1007.42 29.4 1016.34 28.95 1016.34 40.57"/></clipPath><radialGradient id="radial-gradient" cx="283.02" cy="-2997.13" r="0.63" gradientTransform="matrix(8.21, 0, 0, -8.21, -1310.06, -24570.43)" gradientUnits="userSpaceOnUse"><stop offset="0" stop-color="#fff"/><stop offset="1" stop-color="#a5a5a5"/></radialGradient><clipPath id="clip-path-25" transform="translate(1.96 4.76)"><polygon class="cls-1" points="1029 41.46 1018.88 40.73 1018.78 28.87 1028.74 28.45 1029 41.46"/></clipPath><radialGradient id="radial-gradient-2" cx="270.88" cy="-2957.11" r="0.63" gradientTransform="matrix(9.28, 0, 0, -9.28, -1487.16, -27394)" xlink:href="#radial-gradient"/><clipPath id="clip-path-26" transform="translate(1.96 4.76)"><polygon class="cls-1" points="1133.51 39.42 1125.18 38.91 1125.18 29 1133.51 28.58 1133.51 39.42"/></clipPath><radialGradient id="radial-gradient-3" cx="281.17" cy="-3022.26" r="0.63" gradientTransform="matrix(7.66, 0, 0, -7.66, -1022.3, -23110.06)" xlink:href="#radial-gradient"/><clipPath id="clip-path-27" transform="translate(1.96 4.76)"><polygon class="cls-1" points="1135.86 40.03 1126.42 39.26 1126.32 26.87 1135.61 26.43 1135.86 40.03"/></clipPath><radialGradient id="radial-gradient-4" cx="269.89" cy="-2943.91" r="0.63" gradientTransform="matrix(8.65, 0, 0, -9.7, -1202.5, -28505.97)" xlink:href="#radial-gradient"/><clipPath id="clip-path-28" transform="translate(1.96 4.76)"><polygon class="cls-1" points="1068.7 41.63 1056.54 40.88 1056.54 26.41 1068.7 25.79 1068.7 41.63"/></clipPath><radialGradient id="radial-gradient-5" cx="254.01" cy="-2904.52" r="0.63" gradientTransform="matrix(11.19, 0, 0, -11.19, -1777.59, -32461.33)" xlink:href="#radial-gradient"/><clipPath id="clip-path-29" transform="translate(1.96 4.76)"><polygon class="cls-1" points="1085.96 42.85 1072.17 41.84 1072.03 25.69 1085.6 25.11 1085.96 42.85"/></clipPath><radialGradient id="radial-gradient-6" cx="245.2" cy="-2875.15" r="0.63" gradientTransform="matrix(12.64, 0, 0, -12.64, -2018.93, -36309)" xlink:href="#radial-gradient"/><linearGradient id="linear-gradient-10" x1="256.06" y1="62.78" x2="428.12" y2="62.78" gradientUnits="userSpaceOnUse"><stop offset="0" stop-color="#fff"/><stop offset="1" stop-color="#36c2de"/></linearGradient><linearGradient id="linear-gradient-11" x1="254.56" y1="62.78" x2="429.62" y2="62.78" gradientUnits="userSpaceOnUse"><stop offset="0" stop-color="#36c2de"/><stop offset="1" stop-color="#fff"/></linearGradient><linearGradient id="linear-gradient-12" x1="312.34" y1="81.53" x2="484.4" y2="81.53" gradientTransform="matrix(1, 0, 0, -1, -59.75, 163.07)" xlink:href="#linear-gradient-10"/><linearGradient id="linear-gradient-13" x1="310.84" y1="81.53" x2="485.9" y2="81.53" gradientTransform="matrix(1, 0, 0, -1, -59.75, 163.07)" xlink:href="#linear-gradient-11"/><linearGradient id="linear-gradient-14" x1="752.21" y1="62.78" x2="924.27" y2="62.78" xlink:href="#linear-gradient-10"/><linearGradient id="linear-gradient-15" x1="750.71" y1="62.78" x2="925.77" y2="62.78" xlink:href="#linear-gradient-11"/><linearGradient id="linear-gradient-16" x1="-183.8" y1="81.53" x2="-11.74" y2="81.53" gradientTransform="matrix(1, 0, 0, -1, 932.55, 163.07)" xlink:href="#linear-gradient-10"/><linearGradient id="linear-gradient-17" x1="-185.3" y1="81.53" x2="-10.24" y2="81.53" gradientTransform="matrix(1, 0, 0, -1, 932.55, 163.07)" xlink:href="#linear-gradient-11"/></defs><title>Asset 5</title><g id="Layer_2" data-name="Layer 2"><g id="Layer_7" data-name="Layer 7"><g id="Artwork_3" data-name="Artwork 3"><g class="cls-2"><g class="cls-3"><rect class="cls-4" x="23.43" y="22.61" width="128.27" height="77.3"/></g><g class="cls-2"><rect class="cls-5" x="23.43" y="22.61" width="128.27" height="77.3"/><polygon class="cls-5" points="168.01 134.58 5.1 134.84 22.28 103.92 153 103.8 168.01 134.58"/></g><polygon class="cls-6" points="100.8 131.25 70.8 131.09 74.71 122.76 96.84 122.52 100.8 131.25"/><polygon class="cls-7" points="100.8 131.25 70.8 131.09 74.71 122.76 96.84 122.52 100.8 131.25"/><rect class="cls-8" x="25.34" y="24.53" width="124.48" height="2.96"/><rect class="cls-9" x="26.39" y="25.27" width="1.82" height="1.82"/><line class="cls-10" x1="47.32" y1="64.22" x2="93.82" y2="45.38"/><g class="cls-11"><rect class="cls-12" x="57.2" y="31.13" width="49.87" height="53.72" transform="translate(-7.19 104.89) rotate(-60)"/></g><g class="cls-2"><path class="cls-13" d="M60.55,53.11l2-3.07,3.35,2.66,3.24-7.52,4.05-3.51,2.61,4.68L79.62,50l3.92,6.93,4.16,1.85L91.54,62l5.05.21,4,6.19,3.16,5.88-2.87-3.59-3.71-2.32-4.88-.18-3-2.49a.47.47,0,0,0-.18-.09l-4.74-1.21-4.09-3.15L75,58.36l-3.94,0-2.95-.77Z" transform="translate(1.96 4.76)"/></g><g class="cls-14"><rect class="cls-15" x="54.82" y="39.81" width="50.36" height="50.36" transform="translate(-20.56 80.36) rotate(-45)"/></g><g class="cls-2"><path class="cls-16" d="M56.28,54.87l6.67,4.95,2.71.81,4.21.09,5.58,3,3.91,3.54,4.11,1.1L86.93,71l5.11.18s3.51,2.59,3.58,2.61,2.16,3.08,2.16,3.08l6-2.56-2.87-3.59-3.71-2.32-4.88-.18-3.11-2.55-4.49-1.14L80,61.19l-5-2.83-3.94,0-2.95-.77-7.57-4.53Z" transform="translate(1.96 4.76)"/></g><g class="cls-17"><rect class="cls-18" x="57.07" y="42.36" width="39.81" height="46.95" transform="translate(-16.56 104.34) rotate(-60)"/></g><g class="cls-2"><polygon class="cls-13" points="58.36 61.87 58.19 59.59 64.86 64.53 67.57 65.35 71.78 65.44 77.36 68.43 81.29 71.83 85.54 72.97 88.84 75.72 93.95 75.9 97.52 78.51 99.69 81.59 58.36 61.87"/></g><g class="cls-19"><rect class="cls-20" x="64.52" y="52.79" width="5.23" height="4.66"/></g><g class="cls-2"><polygon class="cls-13" points="69.35 52.79 64.52 54.79 67.87 57.45 69.75 53.09 69.35 52.79"/></g><g class="cls-21"><rect class="cls-22" x="66.2" y="32.08" width="49.83" height="49.83" transform="translate(-11.65 85.88) rotate(-45)"/></g><g class="cls-2"><polygon class="cls-13" points="80.6 44.43 82.88 48.85 86.64 52.35 90.48 58.96 94.68 60.82 98.6 63.92 103.64 64.42 107.19 69.67 110.99 76.99 105.69 79.08 102.53 73.2 98.55 67.01 93.5 66.8 89.66 63.54 85.49 61.7 81.58 54.77 77.77 51.1 75.16 46.42 80.6 44.43"/></g><g class="cls-23"><rect class="cls-24" x="59.39" y="25.32" width="54.17" height="57.31" transform="translate(-1.54 106.63) rotate(-60)"/></g><g class="cls-2"><path class="cls-13" d="M65.71,41.88l-1.79,7.59L67.39,48l.4.3,1.36-3.16,4.05-3.51,5.44-2,2.28,4.42,3.76,3.49,3.83,6.61,4.2,1.87,3.92,3.09,5,.5,3.55,5.25L109,72.23,106.14,60.6l-2.84-3.54L95.84,56l-8.75-8-4.42-5.3L78.94,39.9l-2.56-4.18S72,38.58,72,38.49s-3,5.85-3,5.85Z" transform="translate(1.96 4.76)"/></g><g class="cls-25"><rect class="cls-26" x="67.67" y="44.85" width="5.33" height="4.24"/></g><g class="cls-2"><polygon class="cls-13" points="72.45 44.85 67.67 46.64 71.02 49.09 73 45.26 72.45 44.85"/></g><g class="cls-27"><rect class="cls-28" x="68.4" y="26.08" width="53.87" height="53.87" transform="translate(-7.61 87.7) rotate(-45)"/></g><g class="cls-2"><polygon class="cls-13" points="83.45 38.57 78.41 40.4 80.67 44.36 80.83 44.62 84.7 47.41 89.12 52.72 97.87 60.67 105.33 61.74 108.1 65.36 110.98 76.99 116.19 74.73 113.24 62.96 110.67 59.59 104.75 57.86 94.51 50.17 89.7 45 85.73 42.72 83.45 38.57"/><line class="cls-10" x1="47.16" y1="64.29" x2="47.16" y2="36.35"/><line class="cls-10" x1="97.93" y1="90.22" x2="47.16" y2="64.29"/><line class="cls-29" x1="64.91" y1="64.58" x2="70.08" y2="62.4"/><line class="cls-29" x1="67.63" y1="65.39" x2="73.03" y2="63.16"/><line class="cls-29" x1="71.83" y1="65.48" x2="76.96" y2="63.12"/><line class="cls-29" x1="77.41" y1="68.47" x2="82.19" y2="66.05"/><line class="cls-29" x1="81.34" y1="71.88" x2="86.62" y2="69.3"/><line class="cls-29" x1="85.54" y1="72.97" x2="91.12" y2="70.44"/><line class="cls-16" x1="88.89" y1="75.76" x2="94.22" y2="72.99"/><line class="cls-16" x1="93.95" y1="75.9" x2="99.11" y2="73.17"/><line class="cls-16" x1="97.06" y1="78.17" x2="102.82" y2="75.49"/><line class="cls-16" x1="77.77" y1="51.1" x2="82.88" y2="48.86"/><line class="cls-16" x1="81.96" y1="55.12" x2="86.9" y2="52.79"/><line class="cls-16" x1="85.49" y1="61.7" x2="90.48" y2="58.96"/><line class="cls-16" x1="89.66" y1="63.54" x2="94.68" y2="60.82"/><line class="cls-16" x1="93.5" y1="66.8" x2="98.6" y2="63.92"/><line class="cls-16" x1="98.55" y1="67.01" x2="103.64" y2="64.42"/><line class="cls-30" x1="80.82" y1="44.62" x2="85.73" y2="42.72"/><line class="cls-30" x1="84.7" y1="47.41" x2="89.7" y2="45"/><line class="cls-30" x1="89.12" y1="52.71" x2="94.19" y2="50.24"/><line class="cls-30" x1="97.87" y1="60.67" x2="104.75" y2="57.86"/><line class="cls-30" x1="105.33" y1="61.74" x2="110.67" y2="59.58"/><line class="cls-30" x1="108.1" y1="65.36" x2="113.24" y2="62.96"/><polygon class="cls-31" points="157.42 119.83 17.1 120.59 24.07 107.1 151.35 107.1 157.42 119.83"/></g><g class="cls-32"><line class="cls-33" x1="159.24" y1="21.82" x2="159.24"/><line class="cls-33" x1="154.01" y1="23.66" x2="154.01" y2="1.73"/><line class="cls-33" x1="148.78" y1="25.51" x2="148.78" y2="3.46"/><line class="cls-33" x1="143.55" y1="27.36" x2="143.55" y2="5.21"/><line class="cls-33" x1="138.32" y1="29.22" x2="138.32" y2="6.96"/><line class="cls-33" x1="133.09" y1="31.1" x2="133.09" y2="8.72"/><line class="cls-33" x1="127.85" y1="32.98" x2="127.85" y2="10.49"/><line class="cls-33" x1="122.62" y1="34.87" x2="122.62" y2="12.27"/><line class="cls-33" x1="117.39" y1="36.78" x2="117.39" y2="14.06"/><line class="cls-33" x1="112.16" y1="38.69" x2="112.16" y2="15.86"/><line class="cls-33" x1="106.93" y1="40.61" x2="106.93" y2="17.66"/><line class="cls-33" x1="101.7" y1="42.54" x2="101.7" y2="19.48"/><line class="cls-33" x1="96.47" y1="44.48" x2="96.47" y2="21.3"/><line class="cls-33" x1="91.23" y1="46.43" x2="91.23" y2="23.14"/><line class="cls-33" x1="86" y1="48.39" x2="86" y2="24.98"/><line class="cls-33" x1="80.77" y1="50.36" x2="80.77" y2="26.83"/><line class="cls-33" x1="75.54" y1="52.34" x2="75.54" y2="28.69"/><line class="cls-33" x1="70.31" y1="54.33" x2="70.31" y2="30.57"/><line class="cls-33" x1="65.08" y1="56.33" x2="65.08" y2="32.45"/><line class="cls-33" x1="59.85" y1="58.34" x2="59.85" y2="34.34"/><line class="cls-33" x1="54.61" y1="60.36" x2="54.61" y2="36.24"/><line class="cls-33" x1="49.38" y1="62.39" x2="49.38" y2="38.14"/><line class="cls-33" x1="166.48" y1="123.38" x2="210.19" y2="105.42"/><line class="cls-33" x1="160.32" y1="120.31" x2="204.03" y2="102.34"/><line class="cls-33" x1="154.17" y1="117.23" x2="197.88" y2="99.27"/><line class="cls-33" x1="148.02" y1="114.15" x2="191.72" y2="96.19"/><line class="cls-33" x1="141.86" y1="111.07" x2="185.57" y2="93.11"/><line class="cls-33" x1="135.71" y1="108" x2="179.41" y2="90.03"/><line class="cls-33" x1="129.55" y1="104.92" x2="173.26" y2="86.96"/><line class="cls-33" x1="123.4" y1="101.84" x2="167.1" y2="83.88"/><line class="cls-33" x1="117.24" y1="98.76" x2="160.95" y2="80.8"/><line class="cls-33" x1="111.09" y1="95.69" x2="154.79" y2="77.72"/><line class="cls-33" x1="104.93" y1="92.61" x2="148.64" y2="74.65"/><line class="cls-33" x1="98.78" y1="89.53" x2="142.48" y2="71.57"/><line class="cls-33" x1="92.62" y1="86.45" x2="136.33" y2="68.49"/><line class="cls-33" x1="86.47" y1="83.38" x2="130.17" y2="65.42"/><line class="cls-33" x1="80.31" y1="80.3" x2="124.02" y2="62.34"/><line class="cls-33" x1="74.16" y1="77.22" x2="117.87" y2="59.26"/><line class="cls-33" x1="68" y1="74.15" x2="111.71" y2="56.18"/><line class="cls-33" x1="61.85" y1="71.07" x2="105.56" y2="53.11"/><line class="cls-33" x1="55.7" y1="67.99" x2="99.4" y2="50.03"/><line class="cls-33" x1="49.54" y1="64.91" x2="93.25" y2="46.95"/><line class="cls-33" x1="46.76" y1="24.2" x2="89.86" y2="8.06"/><line class="cls-33" x1="46.95" y1="30.48" x2="90.19" y2="14.11"/><line class="cls-33" x1="47.18" y1="36.75" x2="90.55" y2="20.16"/><line class="cls-33" x1="47.44" y1="43.03" x2="90.94" y2="26.2"/><line class="cls-33" x1="47.74" y1="49.3" x2="91.37" y2="32.25"/><line class="cls-33" x1="48.07" y1="55.57" x2="91.83" y2="38.29"/><line class="cls-33" x1="48.44" y1="61.84" x2="92.32" y2="44.33"/></g></g></g><g id="Artwork_4" data-name="Artwork 4"><g class="cls-34"><g class="cls-34"><path class="cls-35" d="M535.35,104.58a13.56,13.56,0,0,1-9.59-6.82c-5.15-8.68-7.62-25.31,6.07-35.92,2.1-1.63,5-2.87,7.94-4.39,0,0-1.09-1.92-.29-5.33,1.31-5.56,7.47-13.8,17.67-11.95a14.26,14.26,0,0,1,6,2.63,19.4,19.4,0,0,1,1-3.21,21.52,21.52,0,0,1,3.76-6,38.46,38.46,0,0,1,9.39-7.87c2.76-1.54,9.29-5.18,17.57-4.15,10.22,1.27,16.62,8.77,19.61,12.51A37.79,37.79,0,0,1,622,48.34a33.06,33.06,0,0,1,11.4,4.81c10.62,7.18,21.7,32.24,11.15,45.27a21.67,21.67,0,0,1-8.43,6.58Z" transform="translate(1.96 4.76)"/></g></g></g><g id="Artwork_2" data-name="Artwork 2"><g class="cls-36"><polygon class="cls-6" points="1004.48 19.53 1004.48 105.21 1037.98 121.18 1037.98 14.78 1004.48 19.53"/><polygon class="cls-37" points="1038.31 120.96 1062.2 106.28 1062.2 19.16 1038.31 14.79 1038.31 120.96"/><polygon class="cls-38" points="1035.21 47.28 1007.03 45.96 1007.03 27.75 1035.21 25.45 1035.21 47.28"/><polygon class="cls-38" points="1034.97 76.34 1007.01 70.23 1007.01 52.03 1034.97 54.54 1034.97 76.34"/><polygon class="cls-38" points="1035.06 105.44 1006.88 94.46 1006.88 76.27 1035.06 83.63 1035.06 105.44"/><polygon class="cls-39" points="1033.35 31.24 1008.22 32.45 1008.22 29.36 1033.35 27.61 1033.35 31.24"/><polygon class="cls-40" points="1032.16 30.07 1030.99 30.13 1030.99 28.42 1032.16 28.35 1032.16 30.07"/><g class="cls-41"><rect class="cls-42" x="1009.38" y="33.71" width="8.92" height="11.62"/></g><g class="cls-43"><rect class="cls-44" x="1020.74" y="33.2" width="10.22" height="13.02"/></g><polygon class="cls-6" points="1145.01 123.14 1113.56 110.36 1113.23 15.34 1145.01 11.93 1145.01 123.14"/><polygon class="cls-37" points="1144.67 122.9 1166.96 107.56 1166.96 16.51 1144.67 11.94 1144.67 122.9"/><polygon class="cls-38" points="1141.78 45.9 1115.49 44.52 1115.49 25.48 1141.78 23.08 1141.78 45.9"/><polygon class="cls-38" points="1141.56 76.27 1115.48 69.89 1115.48 50.86 1141.56 53.48 1141.56 76.27"/><polygon class="cls-38" points="1141.64 106.69 1115.36 95.21 1115.36 76.19 1141.64 83.89 1141.64 106.69"/><polygon class="cls-39" points="1140.04 29.14 1116.61 30.4 1116.61 27.17 1140.04 25.34 1140.04 29.14"/><polygon class="cls-40" points="1138.94 27.91 1137.84 27.98 1137.84 26.19 1138.94 26.11 1138.94 27.91"/><g class="cls-45"><rect class="cls-46" x="1127.15" y="33.34" width="8.32" height="10.84"/></g><g class="cls-47"><rect class="cls-48" x="1128.29" y="31.19" width="9.54" height="13.6"/></g><polygon class="cls-6" points="1051.83 11.23 1051.83 127.99 1097.48 149.76 1097.48 4.76 1051.83 11.23"/><polygon class="cls-37" points="1097.93 149.45 1130.49 129.45 1130.49 10.73 1097.93 4.78 1097.93 149.45"/><polygon class="cls-38" points="1093.71 49.05 1055.31 47.25 1055.31 22.43 1093.71 19.3 1093.71 49.05"/><polygon class="cls-38" points="1093.38 88.65 1055.28 80.33 1055.28 55.52 1093.38 58.94 1093.38 88.65"/><polygon class="cls-38" points="1093.5 128.31 1055.11 113.34 1055.11 88.55 1093.5 98.58 1093.5 128.31"/><polygon class="cls-39" points="1091.16 27.19 1056.93 28.84 1056.93 24.64 1091.16 22.25 1091.16 27.19"/><polygon class="cls-40" points="1089.55 25.59 1087.95 25.68 1087.95 23.36 1089.55 23.25 1089.55 25.59"/><g class="cls-49"><rect class="cls-50" x="1058.51" y="30.55" width="12.16" height="15.83"/></g><g class="cls-51"><rect class="cls-52" x="1073.99" y="29.87" width="13.93" height="17.74"/></g></g></g><rect class="cls-53" x="256.06" y="58.78" width="172.06" height="8"/><rect class="cls-54" x="252.6" y="77.53" width="172.06" height="8" transform="translate(679.22 167.83) rotate(-180)"/><rect class="cls-55" x="752.21" y="58.78" width="172.06" height="8"/><rect class="cls-56" x="748.74" y="77.53" width="172.06" height="8" transform="translate(1671.51 167.83) rotate(-180)"/><path class="cls-35" d="M516.59,64.62a4.66,4.66,0,1,1,3.32-1.38,4.67,4.67,0,0,1-3.32,1.38Z" transform="translate(1.96 4.76)"/><path class="cls-57" d="M516.59,56.29a3.66,3.66,0,0,1,0,7.33h0a3.66,3.66,0,0,1,0-7.33h0m0-2h0a5.66,5.66,0,1,0,5.7,5.63,5.63,5.63,0,0,0-5.7-5.63Z" transform="translate(1.96 4.76)"/><path class="cls-35" d="M544.12,74.08a4.66,4.66,0,1,1,4.66-4.69,4.67,4.67,0,0,1-4.66,4.69Z" transform="translate(1.96 4.76)"/><path class="cls-57" d="M544.12,65.75a3.66,3.66,0,0,1,0,7.33h0a3.66,3.66,0,0,1,0-7.33h0m0-2h0a5.66,5.66,0,1,0,5.7,5.63,5.63,5.63,0,0,0-5.7-5.63Z" transform="translate(1.96 4.76)"/><path class="cls-35" d="M589.76,45a4.66,4.66,0,1,1,4.66-4.69A4.68,4.68,0,0,1,589.76,45Z" transform="translate(1.96 4.76)"/><path class="cls-57" d="M589.76,36.65a3.66,3.66,0,0,1,0,7.33h0a3.66,3.66,0,0,1,0-7.33h0m0-2h0a5.66,5.66,0,1,0,5.7,5.63,5.63,5.63,0,0,0-5.7-5.63Z" transform="translate(1.96 4.76)"/><path class="cls-35" d="M580.7,63.8a4.66,4.66,0,1,1,4.66-4.69,4.67,4.67,0,0,1-4.66,4.69Z" transform="translate(1.96 4.76)"/><path class="cls-57" d="M580.7,55.47a3.66,3.66,0,0,1,0,7.33h0a3.66,3.66,0,0,1,0-7.33h0m0-2h0a5.66,5.66,0,1,0,5.7,5.63,5.63,5.63,0,0,0-5.7-5.63Z" transform="translate(1.96 4.76)"/><path class="cls-35" d="M655.85,71.63a4.66,4.66,0,1,1,4.67-4.69,4.67,4.67,0,0,1-4.67,4.69Z" transform="translate(1.96 4.76)"/><path class="cls-57" d="M655.85,63.3a3.66,3.66,0,0,1,0,7.33h0a3.66,3.66,0,0,1,0-7.33h0m0-2h0a5.66,5.66,0,1,0,5.7,5.63,5.63,5.63,0,0,0-5.7-5.63Z" transform="translate(1.96 4.76)"/><path class="cls-35" d="M612.94,96.14a4.66,4.66,0,1,1,4.66-4.69,4.68,4.68,0,0,1-4.66,4.69Z" transform="translate(1.96 4.76)"/><path class="cls-57" d="M612.94,87.81a3.66,3.66,0,0,1,0,7.33h0a3.66,3.66,0,0,1,0-7.33h0m0-2h0a5.66,5.66,0,1,0,5.7,5.63,5.67,5.67,0,0,0-5.7-5.63Z" transform="translate(1.96 4.76)"/><polyline class="cls-58" points="518.33 64.48 545.86 74.4 582.89 64.12 591.95 44.84 614.67 96.46 658.04 71.49"/></g></g></svg>
