<svg xmlns="http://www.w3.org/2000/svg" xmlns:xlink="http://www.w3.org/1999/xlink" viewBox="0 0 1001.07 688.87"><defs><style>.cls-1,.cls-4,.cls-6{fill:none;}.cls-2{clip-path:url(#clip-path);}.cls-3{fill:#36c2de;}.cls-4,.cls-6{stroke:#a3a3a3;stroke-miterlimit:10;}.cls-4{stroke-width:6px;}.cls-5{fill:#b7b7b7;}.cls-6{stroke-width:0.75px;}.cls-7{fill:#e0e0e0;}.cls-8{fill:#4b4c4c;}.cls-9{fill:#a3a3a3;}</style><clipPath id="clip-path" transform="translate(-14.01 -8.23)"><rect class="cls-1" width="1028.24" height="705.35"/></clipPath></defs><title>Artwork 5</title><g id="Layer_2" data-name="Layer 2"><g id="Layer_8" data-name="Layer 8"><g id="Artwork_5" data-name="Artwork 5"><g class="cls-2"><rect class="cls-3" x="116.59" y="3" width="780.4" height="470.34"/><g class="cls-2"><rect class="cls-4" x="116.59" y="3" width="780.4" height="470.34"/><polygon class="cls-4" points="996.27 684.26 5.1 685.86 109.62 497.73 904.96 497.01 996.27 684.26"/></g><polygon class="cls-5" points="587.37 663.97 404.84 663 428.63 612.37 563.28 610.85 587.37 663.97"/><polygon class="cls-6" points="587.37 663.97 404.84 663 428.63 612.37 563.28 610.85 587.37 663.97"/><rect class="cls-7" x="128.2" y="14.68" width="757.36" height="17.99"/><rect class="cls-8" x="134.65" y="19.18" width="11.07" height="11.07"/><polygon class="cls-9" points="931.83 594.55 78.09 599.16 120.51 517.06 894.91 517.06 931.83 594.55"/></g></g></g></g></svg>
