<?xml version="1.0" encoding="utf-8"?>
<!-- Svg Vector Icons : http://www.onlinewebfonts.com/icon -->
<!DOCTYPE svg PUBLIC "-//W3C//DTD SVG 1.1//EN" "http://www.w3.org/Graphics/SVG/1.1/DTD/svg11.dtd">
<svg version="1.1" xmlns="http://www.w3.org/2000/svg" xmlns:xlink="http://www.w3.org/1999/xlink" x="0px" y="0px" viewBox="0 0 1000 1000" enable-background="new 0 0 1000 1000" xml:space="preserve">
<metadata> Svg Vector Icons : http://www.onlinewebfonts.com/icon </metadata>
<g><path d="M919.6,922.1L719.8,672.3c2.2-2.2,4.3-4.3,6.5-6.5C798,596.3,841.4,503,841.4,394.4C841.4,181.6,669.8,10,457,10C244.2,10,70.5,181.6,70.5,394.4s173.7,384.4,384.4,384.4c69.5,0,134.6-19.5,191.1-49.9c2.2-2.2,4.3-2.2,6.5-4.3l202,249.7c15.2,17.4,41.3,21.7,58.6,6.5C932.6,965.5,934.8,939.4,919.6,922.1z M457,720.1c-180.2,0-325.7-145.5-325.7-325.7c0-180.2,145.5-325.7,325.7-325.7c180.2,0,325.7,145.5,325.7,325.7C782.7,574.6,637.3,720.1,457,720.1z"/></g>
</svg>