<svg xmlns="http://www.w3.org/2000/svg" xmlns:xlink="http://www.w3.org/1999/xlink" viewBox="0 0 194.75 112.31"><defs><style>.cls-1,.cls-3,.cls-6{fill:none;}.cls-2{clip-path:url(#clip-path);}.cls-3{stroke:#36c2de;stroke-linecap:square;stroke-miterlimit:20;stroke-width:10px;}.cls-4,.cls-8{fill:#36c2de;}.cls-5{fill:#333;}.cls-6{stroke:#333;stroke-linecap:round;stroke-width:5px;}.cls-7{font-size:46.64px;fill:#1a1a1a;}.cls-7,.cls-8{font-family:Ubuntu, Ubuntu;}.cls-8{font-size:16.32px;}</style><clipPath id="clip-path" transform="translate(0 0)"><rect class="cls-1" x="13.44" width="181.31" height="86.12"/></clipPath></defs><title>Asset 1</title><g id="Layer_2" data-name="Layer 2"><g id="Layer_1-2" data-name="Layer 1"><g id="Artwork_8" data-name="Artwork 8"><g class="cls-2"><g class="cls-2"><path class="cls-3" d="M131.18,82.92c14.76,1.36,24.25-.24,28.74-8.29,8-14.26-10.5-33.72-22.11-22.66,8.84-26.53-27.36-33.44-34.27-10,3-32.89-23.37-31.87-33.17-27.09C58.49,20.73,56.83,34.55,62.08,42c-4.15-3-16.86-6.91-19.9,7.19C41.08,63.57,57.66,60.81,57.66,60.81" transform="translate(0 0)"/><path class="cls-4" d="M20.07,35.38a5.53,5.53,0,1,1,5.53-5.53,5.53,5.53,0,0,1-5.53,5.53" transform="translate(0 0)"/><path class="cls-5" d="M20.07,25.43a4.42,4.42,0,1,1-4.42,4.42,4.42,4.42,0,0,1,4.42-4.42m0-2.21a6.63,6.63,0,1,0,6.63,6.63,6.64,6.64,0,0,0-6.63-6.63" transform="translate(0 0)"/><path class="cls-4" d="M53.24,47a5.53,5.53,0,1,1,5.53-5.53A5.53,5.53,0,0,1,53.24,47" transform="translate(0 0)"/><path class="cls-5" d="M53.24,37a4.42,4.42,0,1,1-4.42,4.42A4.42,4.42,0,0,1,53.24,37m0-2.21a6.63,6.63,0,1,0,6.63,6.63,6.64,6.64,0,0,0-6.63-6.63" transform="translate(0 0)"/><path class="cls-4" d="M108.52,12.16A5.53,5.53,0,1,1,114,6.63a5.53,5.53,0,0,1-5.53,5.53" transform="translate(0 0)"/><path class="cls-5" d="M108.52,2.21a4.42,4.42,0,1,1-4.42,4.42,4.42,4.42,0,0,1,4.42-4.42m0-2.21a6.63,6.63,0,1,0,6.63,6.63A6.64,6.64,0,0,0,108.52,0" transform="translate(0 0)"/><path class="cls-4" d="M97.46,34.83A5.53,5.53,0,1,1,103,29.3a5.53,5.53,0,0,1-5.53,5.53" transform="translate(0 0)"/><path class="cls-5" d="M97.46,24.88A4.42,4.42,0,1,1,93,29.3a4.42,4.42,0,0,1,4.42-4.42m0-2.21a6.63,6.63,0,1,0,6.63,6.63,6.64,6.64,0,0,0-6.63-6.63" transform="translate(0 0)"/><path class="cls-4" d="M188.12,44.78a5.53,5.53,0,1,1,5.53-5.53,5.53,5.53,0,0,1-5.53,5.53" transform="translate(0 0)"/><path class="cls-5" d="M188.12,34.83a4.42,4.42,0,1,1-4.42,4.42,4.42,4.42,0,0,1,4.42-4.42m0-2.21a6.63,6.63,0,1,0,6.63,6.63,6.64,6.64,0,0,0-6.63-6.63" transform="translate(0 0)"/><path class="cls-4" d="M136.16,74.07a5.53,5.53,0,1,1,5.53-5.53,5.53,5.53,0,0,1-5.53,5.53" transform="translate(0 0)"/><path class="cls-5" d="M136.16,64.12a4.42,4.42,0,1,1-4.42,4.42,4.42,4.42,0,0,1,4.42-4.42m0-2.21a6.63,6.63,0,1,0,6.63,6.63,6.64,6.64,0,0,0-6.63-6.63" transform="translate(0 0)"/><polyline class="cls-6" points="19.8 29.57 52.96 41.73 97.74 29.57 108.8 6.36 135.88 68.82 188.4 38.97"/></g></g></g><text class="cls-7" transform="translate(0 103.5)">Scilab</text><text class="cls-8" transform="translate(125.91 102.34)">Cloud</text></g></g></svg>
