<svg xmlns="http://www.w3.org/2000/svg" xmlns:xlink="http://www.w3.org/1999/xlink" viewBox="0 0 370.7 330.82"><defs><style>.cls-1{fill:none;}.cls-2{clip-path:url(#clip-path);}.cls-3{fill:#b7b7b7;}.cls-4{fill:#6d6d6d;}.cls-5{fill:#969696;}.cls-6{fill:#565656;}.cls-7{fill:#73d9ea;}.cls-8{clip-path:url(#clip-path-2);}.cls-9{fill:url(#radial-gradient);}.cls-10{clip-path:url(#clip-path-3);}.cls-11{fill:url(#radial-gradient-2);}.cls-12{clip-path:url(#clip-path-4);}.cls-13{fill:url(#radial-gradient-3);}.cls-14{clip-path:url(#clip-path-5);}.cls-15{fill:url(#radial-gradient-4);}.cls-16{clip-path:url(#clip-path-6);}.cls-17{fill:url(#radial-gradient-5);}.cls-18{clip-path:url(#clip-path-7);}.cls-19{fill:url(#radial-gradient-6);}</style><clipPath id="clip-path" transform="translate(0 0)"><rect class="cls-1" width="370.7" height="330.82"/></clipPath><clipPath id="clip-path-2" transform="translate(0 0)"><polygon class="cls-1" points="31.53 92.55 11.17 91.31 11.17 67.07 31.53 66.04 31.53 92.55"/></clipPath><radialGradient id="radial-gradient" cx="93.01" cy="-1662.02" r="1.44" gradientTransform="matrix(8.21, 0, 0, -8.21, -742.34, -13567.83)" gradientUnits="userSpaceOnUse"><stop offset="0" stop-color="#fff"/><stop offset="1" stop-color="#a5a5a5"/></radialGradient><clipPath id="clip-path-3" transform="translate(0 0)"><polygon class="cls-1" points="60.42 94.6 37.34 92.92 37.1 65.86 59.82 64.9 60.42 94.6"/></clipPath><radialGradient id="radial-gradient-2" cx="95.29" cy="-1638.13" r="1.44" gradientTransform="matrix(9.28, 0, 0, -9.28, -835.22, -15117.51)" xlink:href="#radial-gradient"/><clipPath id="clip-path-4" transform="translate(0 0)"><polygon class="cls-1" points="298.85 89.93 279.86 88.77 279.86 66.16 298.85 65.21 298.85 89.93"/></clipPath><radialGradient id="radial-gradient-3" cx="102.82" cy="-1676.93" r="1.44" gradientTransform="matrix(7.66, 0, 0, -7.66, -498.17, -12766.8)" xlink:href="#radial-gradient"/><clipPath id="clip-path-5" transform="translate(0 0)"><polygon class="cls-1" points="304.22 91.34 282.69 89.58 282.46 61.31 303.66 60.3 304.22 91.34"/></clipPath><radialGradient id="radial-gradient-4" cx="103.21" cy="-1630.05" r="1.44" gradientTransform="matrix(8.65, 0, 0, -9.7, -599.81, -15729.09)" xlink:href="#radial-gradient"/><clipPath id="clip-path-6" transform="translate(0 0)"><polygon class="cls-1" points="151 94.97 123.26 93.28 123.26 60.25 151 58.85 151 94.97"/></clipPath><radialGradient id="radial-gradient-5" cx="99.36" cy="-1606.59" r="1.44" gradientTransform="matrix(11.19, 0, 0, -11.19, -974.6, -17899.79)" xlink:href="#radial-gradient"/><clipPath id="clip-path-7" transform="translate(0 0)"><polygon class="cls-1" points="190.37 97.76 158.92 95.47 158.59 58.6 189.55 57.29 190.37 97.76"/></clipPath><radialGradient id="radial-gradient-6" cx="100.91" cy="-1589.07" r="1.44" gradientTransform="matrix(12.64, 0, 0, -12.64, -1101.17, -20011.53)" xlink:href="#radial-gradient"/></defs><title>Asset 3</title><g id="Layer_2" data-name="Layer 2"><g id="Layer_6" data-name="Layer 6"><g id="About"><g id="Artwork_2" data-name="Artwork 2"><g class="cls-2"><polygon class="cls-3" points="0 33.7 0 229.18 76.44 265.62 76.44 22.86 0 33.7"/><polygon class="cls-4" points="77.19 265.11 131.7 231.62 131.7 32.85 77.19 22.89 77.19 265.11"/><polygon class="cls-5" points="70.11 97.01 5.82 93.99 5.82 52.45 70.11 47.2 70.11 97.01"/><polygon class="cls-5" points="69.57 163.31 5.78 149.38 5.78 107.84 69.57 113.57 69.57 163.31"/><polygon class="cls-5" points="69.77 229.71 5.48 204.65 5.48 163.15 69.77 179.94 69.77 229.71"/><polygon class="cls-6" points="65.86 60.42 8.53 63.17 8.53 56.13 65.86 52.14 65.86 60.42"/><polygon class="cls-7" points="63.16 57.74 60.48 57.89 60.48 53.99 63.16 53.82 63.16 57.74"/><g class="cls-8"><rect class="cls-9" x="11.17" y="66.04" width="20.35" height="26.51"/></g><g class="cls-10"><rect class="cls-11" x="37.1" y="64.9" width="23.32" height="29.7"/></g><polygon class="cls-3" points="320.63 270.08 248.86 240.92 248.13 24.14 320.63 16.36 320.63 270.08"/><polygon class="cls-4" points="319.85 269.54 370.7 234.54 370.7 26.8 319.85 16.39 319.85 269.54"/><polygon class="cls-5" points="313.25 93.86 253.28 90.71 253.28 47.29 313.25 41.8 313.25 93.86"/><polygon class="cls-5" points="312.75 163.15 253.25 148.59 253.25 105.18 312.75 111.16 312.75 163.15"/><polygon class="cls-5" points="312.93 232.55 252.97 206.35 252.97 162.98 312.93 180.53 312.93 232.55"/><polygon class="cls-6" points="309.28 55.62 255.81 58.5 255.81 51.14 309.28 46.96 309.28 55.62"/><polygon class="cls-7" points="306.77 52.82 304.27 52.97 304.27 48.9 306.77 48.72 306.77 52.82"/><g class="cls-12"><rect class="cls-13" x="279.86" y="65.21" width="18.99" height="24.73"/></g><g class="cls-14"><rect class="cls-15" x="282.46" y="60.3" width="21.76" height="31.04"/></g><polygon class="cls-3" points="108.03 14.78 108.03 281.15 212.19 330.82 212.19 0 108.03 14.78"/><polygon class="cls-4" points="213.21 330.11 287.5 284.48 287.5 13.62 213.21 0.04 213.21 330.11"/><polygon class="cls-5" points="203.57 101.05 115.96 96.94 115.96 40.33 203.57 33.17 203.57 101.05"/><polygon class="cls-5" points="202.83 191.4 115.91 172.41 115.91 115.81 202.83 123.61 202.83 191.4"/><polygon class="cls-5" points="203.1 281.88 115.5 247.73 115.5 191.17 203.1 214.06 203.1 281.88"/><polygon class="cls-6" points="197.77 51.19 119.66 54.94 119.66 45.35 197.77 39.9 197.77 51.19"/><polygon class="cls-7" points="194.09 47.54 190.44 47.74 190.44 42.43 194.09 42.19 194.09 47.54"/><g class="cls-16"><rect class="cls-17" x="123.26" y="58.85" width="27.74" height="36.12"/></g><g class="cls-18"><rect class="cls-19" x="158.59" y="57.29" width="31.78" height="40.47"/></g></g></g></g></g></g></svg>
