<svg xmlns="http://www.w3.org/2000/svg" xmlns:xlink="http://www.w3.org/1999/xlink" viewBox="0 0 210.23 137.85"><defs><style>.cls-1,.cls-10,.cls-13,.cls-16,.cls-29,.cls-30,.cls-33,.cls-5,.cls-7{fill:none;}.cls-2{clip-path:url(#clip-path);}.cls-3{clip-path:url(#clip-path-2);}.cls-4{fill:url(#linear-gradient);}.cls-5,.cls-7{stroke:#a3a3a3;}.cls-10,.cls-13,.cls-16,.cls-29,.cls-30,.cls-33,.cls-5,.cls-7{stroke-miterlimit:10;}.cls-5{stroke-width:6px;}.cls-6{fill:#b7b7b7;}.cls-7{stroke-width:0.75px;}.cls-8{fill:#e0e0e0;}.cls-9{fill:#4b4c4c;}.cls-10,.cls-13,.cls-33{stroke:#b3b3b3;}.cls-10{stroke-width:3px;}.cls-11{clip-path:url(#clip-path-4);}.cls-12{fill:url(#linear-gradient-2);}.cls-13{stroke-width:0.5px;}.cls-14{clip-path:url(#clip-path-6);}.cls-15{fill:url(#linear-gradient-3);}.cls-16{stroke:#ededed;}.cls-16,.cls-29,.cls-30,.cls-33{stroke-width:0.25px;}.cls-17{clip-path:url(#clip-path-8);}.cls-18{fill:url(#linear-gradient-4);}.cls-19{clip-path:url(#clip-path-10);}.cls-20{fill:url(#linear-gradient-5);}.cls-21{clip-path:url(#clip-path-12);}.cls-22{fill:url(#linear-gradient-6);}.cls-23{clip-path:url(#clip-path-14);}.cls-24{fill:url(#linear-gradient-7);}.cls-25{clip-path:url(#clip-path-16);}.cls-26{fill:url(#linear-gradient-8);}.cls-27{clip-path:url(#clip-path-18);}.cls-28{fill:url(#linear-gradient-9);}.cls-29{stroke:#efefef;}.cls-30{stroke:#e2e2e2;}.cls-31{fill:#a3a3a3;}.cls-32{clip-path:url(#clip-path-20);}</style><clipPath id="clip-path" transform="translate(1.96 20.76)"><rect class="cls-1" width="169" height="115.93"/></clipPath><clipPath id="clip-path-2" transform="translate(1.96 20.76)"><rect class="cls-1" x="21.46" y="1.85" width="128.27" height="77.3"/></clipPath><linearGradient id="linear-gradient" x1="206.71" y1="-2666.9" x2="207.32" y2="-2666.9" gradientTransform="matrix(0, 125.6, 125.6, 0, 335053.57, -25940.27)" gradientUnits="userSpaceOnUse"><stop offset="0" stop-color="#0a5966"/><stop offset="1" stop-color="#c2ebff"/></linearGradient><clipPath id="clip-path-4" transform="translate(1.96 20.76)"><path class="cls-1" d="M69.15,29.17l-3.24,7.51L62.56,34l-2,3.07,7.57,4.53,2.95.77,3.94,0,5.22,2.93,4.09,3.15,4.74,1.21a.47.47,0,0,1,.18.09l3,2.49,4.88.18,3.71,2.32,2.87,3.59-3.16-5.88-4-6.19L91.54,46l-3.84-3.25-4.16-1.85L79.61,34l-3.8-3.67L73.2,25.66Z"/></clipPath><linearGradient id="linear-gradient-2" x1="280.65" y1="-2619.72" x2="281.27" y2="-2619.72" gradientTransform="matrix(-26.61, 0, 0, 26.61, 7560.54, 69758.58)" gradientUnits="userSpaceOnUse"><stop offset="0" stop-color="#9b9b9b"/><stop offset="1" stop-color="#686868"/></linearGradient><clipPath id="clip-path-6" transform="translate(1.96 20.76)"><path class="cls-1" d="M56.28,38.86l6.67,4.95,2.72.81,4.21.09,5.58,3,3.91,3.54,4.11,1.1L86.93,55l5.11.18s3.51,2.59,3.58,2.61,2.16,3.08,2.16,3.08l6-2.56-2.87-3.59-3.71-2.32-4.88-.18-3.11-2.55-4.49-1.14L80,45.18l-5-2.83-3.94,0-2.95-.77L60.55,37.1Z"/></clipPath><linearGradient id="linear-gradient-3" x1="160.38" y1="-2636.87" x2="160.99" y2="-2636.87" gradientTransform="matrix(0, -76.87, -76.87, 0, -202605.79, 12399.74)" gradientUnits="userSpaceOnUse"><stop offset="0" stop-color="#f7f7f7"/><stop offset="0.32" stop-color="#f7f7f7"/><stop offset="0.97" stop-color="#ddd"/><stop offset="1" stop-color="#b3b3b3"/></linearGradient><clipPath id="clip-path-8" transform="translate(1.96 20.76)"><polygon class="cls-1" points="56.4 41.11 97.73 60.83 95.56 57.75 91.98 55.14 86.88 54.96 83.58 52.21 79.33 51.07 75.4 47.66 69.82 44.67 65.61 44.58 62.9 43.77 56.22 38.82 56.4 41.11"/></clipPath><linearGradient id="linear-gradient-4" x1="463.37" y1="-2533.05" x2="463.98" y2="-2533.05" gradientTransform="matrix(-9.17, 0, 0, 9.17, 4329.29, 23279.8)" gradientUnits="userSpaceOnUse"><stop offset="0" stop-color="#68c9e0"/><stop offset="1" stop-color="#2b8ea5"/></linearGradient><clipPath id="clip-path-10" transform="translate(1.96 20.76)"><polygon class="cls-1" points="62.56 34.03 65.91 36.68 67.79 32.33 67.39 32.02 62.56 34.03"/></clipPath><linearGradient id="linear-gradient-5" x1="157.75" y1="-2998.21" x2="158.37" y2="-2998.21" gradientTransform="matrix(8.5, 0, 0, -8.5, -1276.23, -25426.92)" gradientUnits="userSpaceOnUse"><stop offset="0" stop-color="#b3b3b3"/><stop offset="0.11" stop-color="#b3b3b3"/><stop offset="0.43" stop-color="#c1c1c1"/><stop offset="1" stop-color="#c1c1c1"/></linearGradient><clipPath id="clip-path-12" transform="translate(1.96 20.76)"><polygon class="cls-1" points="73.2 25.66 75.81 30.34 79.61 34 83.53 40.94 87.69 42.78 91.54 46.03 96.59 46.24 100.56 52.43 103.73 58.31 109.02 56.22 105.23 48.91 101.68 43.65 96.64 43.16 92.72 40.06 88.51 38.2 84.68 31.58 80.92 28.09 78.64 23.67 73.2 25.66"/></clipPath><linearGradient id="linear-gradient-6" x1="160.21" y1="-2636.55" x2="160.83" y2="-2636.55" gradientTransform="matrix(0, -76.28, -76.28, 0, -201013.3, 12284.59)" xlink:href="#linear-gradient-3"/><clipPath id="clip-path-14" transform="translate(1.96 20.76)"><path class="cls-1" d="M72,22.48h0m0,0c0,.13-3,5.85-3,5.85l-3.35-2.46-1.79,7.59L67.39,32l.4.3,1.36-3.16,4.05-3.51,5.44-2,2.28,4.42,3.76,3.49,3.83,6.61,4.2,1.86,3.92,3.09,5,.5,3.55,5.25L109,56.22l-2.89-11.63-2.84-3.54L95.84,40l-8.75-8-4.42-5.3L78.94,23.9l-2.56-4.18s-4.2,2.72-4.33,2.77"/></clipPath><linearGradient id="linear-gradient-7" x1="271.44" y1="-2624.11" x2="272.05" y2="-2624.11" gradientTransform="matrix(-29.46, 0, 0, 29.46, 8094.93, 77355.15)" gradientUnits="userSpaceOnUse"><stop offset="0" stop-color="#ccc"/><stop offset="1" stop-color="#919191"/></linearGradient><clipPath id="clip-path-16" transform="translate(1.96 20.76)"><polygon class="cls-1" points="65.71 25.87 69.06 28.33 71.04 24.5 70.49 24.09 65.71 25.87"/></clipPath><linearGradient id="linear-gradient-8" x1="158" y1="-2992.81" x2="158.61" y2="-2992.81" gradientTransform="matrix(8.65, 0, 0, -8.65, -1299.72, -25854.52)" xlink:href="#linear-gradient-5"/><clipPath id="clip-path-18" transform="translate(1.96 20.76)"><polygon class="cls-1" points="76.45 19.64 78.71 23.59 78.86 23.86 82.74 26.65 87.16 31.95 95.91 39.91 103.37 40.98 106.14 44.59 109.02 56.22 114.22 53.97 111.27 42.19 108.71 38.82 102.79 37.1 92.55 29.41 87.74 24.24 83.77 21.96 81.49 17.81 76.45 19.64"/></clipPath><linearGradient id="linear-gradient-9" x1="162.11" y1="-2638.73" x2="162.73" y2="-2638.73" gradientTransform="matrix(0, -82.84, -82.84, 0, -218503.45, 13492.15)" xlink:href="#linear-gradient-3"/><clipPath id="clip-path-20" transform="translate(1.96 20.76)"><polygon class="cls-1" points="23.83 6.72 23.99 77.1 147.4 77.71 148.22 6.72 23.83 6.72"/></clipPath></defs><title>Asset 7</title><g id="Layer_2" data-name="Layer 2"><g id="Layer_7" data-name="Layer 7"><g id="Artwork_3" data-name="Artwork 3"><g class="cls-2"><g class="cls-3"><rect class="cls-4" x="23.43" y="22.61" width="128.27" height="77.3"/></g><g class="cls-2"><rect class="cls-5" x="23.43" y="22.61" width="128.27" height="77.3"/><polygon class="cls-5" points="168.01 134.58 5.1 134.84 22.28 103.92 153 103.8 168.01 134.58"/></g><polygon class="cls-6" points="100.8 131.25 70.8 131.09 74.71 122.76 96.84 122.52 100.8 131.25"/><polygon class="cls-7" points="100.8 131.25 70.8 131.09 74.71 122.76 96.84 122.52 100.8 131.25"/><rect class="cls-8" x="25.34" y="24.53" width="124.48" height="2.96"/><rect class="cls-9" x="26.39" y="25.27" width="1.82" height="1.82"/><line class="cls-10" x1="47.32" y1="64.22" x2="93.82" y2="45.38"/><g class="cls-11"><rect class="cls-12" x="57.2" y="15.12" width="49.87" height="53.72" transform="translate(6.67 112.89) rotate(-60)"/></g><g class="cls-2"><path class="cls-13" d="M60.55,37.1l2-3.07,3.35,2.66,3.24-7.52,4.05-3.51,2.61,4.68L79.62,34l3.92,6.93,4.16,1.85L91.54,46l5.05.21,4,6.19,3.16,5.88-2.87-3.59-3.71-2.32-4.88-.18-3-2.49a.47.47,0,0,0-.18-.09l-4.74-1.21-4.09-3.15L75,42.35l-3.94,0-2.95-.77Z" transform="translate(1.96 20.76)"/></g><g class="cls-14"><rect class="cls-15" x="54.82" y="23.8" width="50.36" height="50.36" transform="translate(-9.24 91.68) rotate(-45)"/></g><g class="cls-2"><path class="cls-16" d="M56.28,38.86l6.67,4.95,2.71.81,4.21.09,5.58,3,3.91,3.54,4.11,1.1L86.93,55l5.11.18s3.51,2.59,3.58,2.61,2.16,3.08,2.16,3.08l6-2.56-2.87-3.59-3.71-2.32-4.88-.18-3.11-2.55-4.49-1.14L80,45.18l-5-2.83-3.94,0-2.95-.77L60.55,37.1Z" transform="translate(1.96 20.76)"/></g><g class="cls-17"><rect class="cls-18" x="57.07" y="26.35" width="39.81" height="46.95" transform="translate(-2.7 112.34) rotate(-60)"/></g><g class="cls-2"><polygon class="cls-13" points="58.36 61.87 58.19 59.59 64.86 64.53 67.57 65.35 71.78 65.44 77.36 68.43 81.29 71.83 85.54 72.97 88.84 75.72 93.95 75.9 97.52 78.51 99.69 81.59 58.36 61.87"/></g><g class="cls-19"><rect class="cls-20" x="64.52" y="52.79" width="5.23" height="4.66"/></g><g class="cls-2"><polygon class="cls-13" points="69.35 52.79 64.52 54.79 67.87 57.45 69.75 53.09 69.35 52.79"/></g><g class="cls-21"><rect class="cls-22" x="66.2" y="16.08" width="49.83" height="49.83" transform="translate(-0.34 97.2) rotate(-45)"/></g><g class="cls-2"><polygon class="cls-13" points="80.6 44.43 82.88 48.85 86.64 52.35 90.48 58.96 94.68 60.82 98.6 63.92 103.64 64.42 107.19 69.67 110.99 76.99 105.69 79.08 102.53 73.2 98.55 67.01 93.5 66.8 89.66 63.54 85.49 61.7 81.58 54.77 77.77 51.1 75.16 46.42 80.6 44.43"/></g><g class="cls-23"><rect class="cls-24" x="59.39" y="9.31" width="54.17" height="57.31" transform="translate(12.32 114.64) rotate(-60)"/></g><g class="cls-2"><path class="cls-13" d="M65.71,25.87l-1.79,7.59L67.39,32l.4.3,1.36-3.16,4.05-3.51,5.44-2,2.28,4.42,3.76,3.49,3.83,6.61,4.2,1.87,3.92,3.09,5,.5,3.55,5.25L109,56.22l-2.89-11.63-2.84-3.54L95.84,40l-8.75-8-4.42-5.3L78.94,23.9l-2.56-4.18S72,22.57,72,22.48s-3,5.85-3,5.85Z" transform="translate(1.96 20.76)"/></g><g class="cls-25"><rect class="cls-26" x="67.67" y="44.85" width="5.33" height="4.24"/></g><g class="cls-2"><polygon class="cls-13" points="72.45 44.85 67.67 46.64 71.02 49.09 73 45.26 72.45 44.85"/></g><g class="cls-27"><rect class="cls-28" x="68.4" y="10.08" width="53.87" height="53.87" transform="translate(3.71 99.02) rotate(-45)"/></g><g class="cls-2"><polygon class="cls-13" points="83.45 38.57 78.41 40.4 80.67 44.36 80.83 44.62 84.7 47.41 89.12 52.72 97.87 60.67 105.33 61.74 108.1 65.36 110.98 76.99 116.19 74.73 113.24 62.96 110.67 59.59 104.75 57.86 94.51 50.17 89.7 45 85.73 42.72 83.45 38.57"/><line class="cls-10" x1="47.16" y1="64.29" x2="47.16" y2="36.35"/><line class="cls-10" x1="97.93" y1="90.22" x2="47.16" y2="64.29"/><line class="cls-29" x1="64.91" y1="64.58" x2="70.08" y2="62.4"/><line class="cls-29" x1="67.63" y1="65.39" x2="73.03" y2="63.16"/><line class="cls-29" x1="71.83" y1="65.48" x2="76.96" y2="63.12"/><line class="cls-29" x1="77.41" y1="68.47" x2="82.19" y2="66.05"/><line class="cls-29" x1="81.34" y1="71.88" x2="86.62" y2="69.3"/><line class="cls-29" x1="85.54" y1="72.97" x2="91.12" y2="70.44"/><line class="cls-16" x1="88.89" y1="75.76" x2="94.22" y2="72.99"/><line class="cls-16" x1="93.95" y1="75.9" x2="99.11" y2="73.17"/><line class="cls-16" x1="97.06" y1="78.17" x2="102.82" y2="75.49"/><line class="cls-16" x1="77.77" y1="51.1" x2="82.88" y2="48.86"/><line class="cls-16" x1="81.96" y1="55.12" x2="86.9" y2="52.79"/><line class="cls-16" x1="85.49" y1="61.7" x2="90.48" y2="58.96"/><line class="cls-16" x1="89.66" y1="63.54" x2="94.68" y2="60.82"/><line class="cls-16" x1="93.5" y1="66.8" x2="98.6" y2="63.92"/><line class="cls-16" x1="98.55" y1="67.01" x2="103.64" y2="64.42"/><line class="cls-30" x1="80.82" y1="44.62" x2="85.73" y2="42.72"/><line class="cls-30" x1="84.7" y1="47.41" x2="89.7" y2="45"/><line class="cls-30" x1="89.12" y1="52.71" x2="94.19" y2="50.24"/><line class="cls-30" x1="97.87" y1="60.67" x2="104.75" y2="57.86"/><line class="cls-30" x1="105.33" y1="61.74" x2="110.67" y2="59.58"/><line class="cls-30" x1="108.1" y1="65.36" x2="113.24" y2="62.96"/><polygon class="cls-31" points="157.42 119.83 17.1 120.59 24.07 107.1 151.35 107.1 157.42 119.83"/></g><g class="cls-32"><line class="cls-33" x1="159.24" y1="21.82" x2="159.24"/><line class="cls-33" x1="154.01" y1="23.66" x2="154.01" y2="1.73"/><line class="cls-33" x1="148.78" y1="25.51" x2="148.78" y2="3.46"/><line class="cls-33" x1="143.55" y1="27.36" x2="143.55" y2="5.21"/><line class="cls-33" x1="138.32" y1="29.22" x2="138.32" y2="6.96"/><line class="cls-33" x1="133.09" y1="31.1" x2="133.09" y2="8.72"/><line class="cls-33" x1="127.85" y1="32.98" x2="127.85" y2="10.49"/><line class="cls-33" x1="122.62" y1="34.87" x2="122.62" y2="12.27"/><line class="cls-33" x1="117.39" y1="36.78" x2="117.39" y2="14.06"/><line class="cls-33" x1="112.16" y1="38.69" x2="112.16" y2="15.86"/><line class="cls-33" x1="106.93" y1="40.61" x2="106.93" y2="17.66"/><line class="cls-33" x1="101.7" y1="42.54" x2="101.7" y2="19.48"/><line class="cls-33" x1="96.47" y1="44.48" x2="96.47" y2="21.3"/><line class="cls-33" x1="91.23" y1="46.43" x2="91.23" y2="23.14"/><line class="cls-33" x1="86" y1="48.39" x2="86" y2="24.98"/><line class="cls-33" x1="80.77" y1="50.36" x2="80.77" y2="26.83"/><line class="cls-33" x1="75.54" y1="52.34" x2="75.54" y2="28.69"/><line class="cls-33" x1="70.31" y1="54.33" x2="70.31" y2="30.57"/><line class="cls-33" x1="65.08" y1="56.33" x2="65.08" y2="32.45"/><line class="cls-33" x1="59.85" y1="58.34" x2="59.85" y2="34.34"/><line class="cls-33" x1="54.61" y1="60.36" x2="54.61" y2="36.24"/><line class="cls-33" x1="49.38" y1="62.39" x2="49.38" y2="38.14"/><line class="cls-33" x1="166.48" y1="123.38" x2="210.19" y2="105.42"/><line class="cls-33" x1="160.32" y1="120.31" x2="204.03" y2="102.34"/><line class="cls-33" x1="154.17" y1="117.23" x2="197.88" y2="99.27"/><line class="cls-33" x1="148.02" y1="114.15" x2="191.72" y2="96.19"/><line class="cls-33" x1="141.86" y1="111.07" x2="185.57" y2="93.11"/><line class="cls-33" x1="135.71" y1="108" x2="179.41" y2="90.03"/><line class="cls-33" x1="129.55" y1="104.92" x2="173.26" y2="86.96"/><line class="cls-33" x1="123.4" y1="101.84" x2="167.1" y2="83.88"/><line class="cls-33" x1="117.24" y1="98.76" x2="160.95" y2="80.8"/><line class="cls-33" x1="111.09" y1="95.69" x2="154.79" y2="77.72"/><line class="cls-33" x1="104.93" y1="92.61" x2="148.64" y2="74.65"/><line class="cls-33" x1="98.78" y1="89.53" x2="142.48" y2="71.57"/><line class="cls-33" x1="92.62" y1="86.45" x2="136.33" y2="68.49"/><line class="cls-33" x1="86.47" y1="83.38" x2="130.17" y2="65.42"/><line class="cls-33" x1="80.31" y1="80.3" x2="124.02" y2="62.34"/><line class="cls-33" x1="74.16" y1="77.22" x2="117.87" y2="59.26"/><line class="cls-33" x1="68" y1="74.15" x2="111.71" y2="56.18"/><line class="cls-33" x1="61.85" y1="71.07" x2="105.56" y2="53.11"/><line class="cls-33" x1="55.7" y1="67.99" x2="99.4" y2="50.03"/><line class="cls-33" x1="49.54" y1="64.91" x2="93.25" y2="46.95"/><line class="cls-33" x1="46.76" y1="24.2" x2="89.86" y2="8.06"/><line class="cls-33" x1="46.95" y1="30.48" x2="90.19" y2="14.11"/><line class="cls-33" x1="47.18" y1="36.75" x2="90.55" y2="20.16"/><line class="cls-33" x1="47.44" y1="43.03" x2="90.94" y2="26.2"/><line class="cls-33" x1="47.74" y1="49.3" x2="91.37" y2="32.25"/><line class="cls-33" x1="48.07" y1="55.57" x2="91.83" y2="38.29"/><line class="cls-33" x1="48.44" y1="61.84" x2="92.32" y2="44.33"/></g></g></g></g></g></svg>
