<svg xmlns="http://www.w3.org/2000/svg" xmlns:xlink="http://www.w3.org/1999/xlink" viewBox="0 0 150.58 83.57"><defs><style>.cls-1,.cls-5{fill:none;}.cls-2{clip-path:url(#clip-path);}.cls-3{fill:#36c2de;}.cls-4{fill:#333;}.cls-5{stroke:#333;stroke-linecap:round;stroke-width:2px;}</style><clipPath id="clip-path" transform="translate(0 0)"><rect class="cls-1" x="10.74" width="127.1" height="83.57"/></clipPath></defs><title>Asset 8</title><g id="Layer_2" data-name="Layer 2"><g id="Layer_7" data-name="Layer 7"><g id="Artwork_4" data-name="Artwork 4"><g class="cls-2"><g class="cls-2"><path class="cls-3" d="M24.42,83.15a13.56,13.56,0,0,1-9.59-6.82C9.69,67.65,7.21,51,20.9,40.41c2.1-1.63,5-2.87,7.94-4.39,0,0-1.09-1.92-.29-5.33,1.31-5.56,7.47-13.8,17.67-11.95a14.26,14.26,0,0,1,6,2.63,19.4,19.4,0,0,1,1-3.21,21.52,21.52,0,0,1,3.76-6,38.46,38.46,0,0,1,9.39-7.87C69.14,2.79,75.67-.85,84,.18c10.22,1.27,16.62,8.77,19.61,12.51A37.79,37.79,0,0,1,111,26.91a33.06,33.06,0,0,1,11.4,4.81C133,38.9,144.12,64,133.58,77a21.67,21.67,0,0,1-8.43,6.58Z" transform="translate(0 0)"/></g></g></g><path class="cls-3" d="M5.66,43.19A4.66,4.66,0,1,1,9,41.8a4.67,4.67,0,0,1-3.32,1.38Z" transform="translate(0 0)"/><path class="cls-4" d="M5.66,34.86a3.66,3.66,0,0,1,0,7.33h0a3.66,3.66,0,0,1,0-7.33h0m0-2h0a5.66,5.66,0,1,0,5.7,5.63,5.63,5.63,0,0,0-5.7-5.63Z" transform="translate(0 0)"/><path class="cls-3" d="M33.19,52.65A4.66,4.66,0,1,1,37.86,48a4.67,4.67,0,0,1-4.66,4.69Z" transform="translate(0 0)"/><path class="cls-4" d="M33.19,44.32a3.66,3.66,0,0,1,0,7.33h0a3.66,3.66,0,0,1,0-7.33h0m0-2h0A5.66,5.66,0,1,0,38.86,48a5.63,5.63,0,0,0-5.7-5.63Z" transform="translate(0 0)"/><path class="cls-3" d="M78.83,23.55a4.66,4.66,0,1,1,4.66-4.69,4.68,4.68,0,0,1-4.66,4.69Z" transform="translate(0 0)"/><path class="cls-4" d="M78.83,15.22a3.66,3.66,0,0,1,0,7.33h0a3.66,3.66,0,0,1,0-7.33h0m0-2h0a5.66,5.66,0,1,0,5.7,5.63,5.63,5.63,0,0,0-5.7-5.63Z" transform="translate(0 0)"/><path class="cls-3" d="M69.77,42.37a4.66,4.66,0,1,1,4.66-4.69,4.67,4.67,0,0,1-4.66,4.69Z" transform="translate(0 0)"/><path class="cls-4" d="M69.77,34a3.66,3.66,0,0,1,0,7.33h0a3.66,3.66,0,0,1,0-7.33h0m0-2h0a5.66,5.66,0,1,0,5.7,5.63A5.63,5.63,0,0,0,69.74,32Z" transform="translate(0 0)"/><path class="cls-3" d="M144.92,50.2a4.66,4.66,0,1,1,4.67-4.69,4.67,4.67,0,0,1-4.67,4.69Z" transform="translate(0 0)"/><path class="cls-4" d="M144.92,41.87a3.66,3.66,0,0,1,0,7.33h0a3.66,3.66,0,0,1,0-7.33h0m0-2h0a5.66,5.66,0,1,0,5.7,5.63,5.63,5.63,0,0,0-5.7-5.63Z" transform="translate(0 0)"/><path class="cls-3" d="M102,74.71A4.66,4.66,0,1,1,106.67,70,4.68,4.68,0,0,1,102,74.71Z" transform="translate(0 0)"/><path class="cls-4" d="M102,66.38a3.66,3.66,0,0,1,0,7.33h0a3.66,3.66,0,0,1,0-7.33h0m0-2h0a5.66,5.66,0,1,0,5.7,5.63,5.67,5.67,0,0,0-5.7-5.63Z" transform="translate(0 0)"/><polyline class="cls-5" points="5.43 38.3 32.97 48.22 70 37.94 79.05 18.65 101.78 70.27 145.15 45.3"/></g></g></svg>
